<svg xmlns="http://www.w3.org/2000/svg" xmlns:xlink="http://www.w3.org/1999/xlink" width="1024" zoomAndPan="magnify" viewBox="0 0 768 576" height="768" preserveAspectRatio="xMidYMid meet" version="1.2"><defs><clipPath id="134bcfb4eb"><path d="M 297.601562 201.601562 L 470.398438 201.601562 L 470.398438 374.398438 L 297.601562 374.398438 Z M 297.601562 201.601562 "/></clipPath><clipPath id="c3c96d24be"><path d="M 384 201.601562 C 336.28125 201.601562 297.601562 240.28125 297.601562 288 C 297.601562 335.71875 336.28125 374.398438 384 374.398438 C 431.71875 374.398438 470.398438 335.71875 470.398438 288 C 470.398438 240.28125 431.71875 201.601562 384 201.601562 Z M 384 201.601562 "/></clipPath><clipPath id="0c1d56550b"><path d="M 309.601562 213.601562 L 482.398438 213.601562 L 482.398438 386.398438 L 309.601562 386.398438 Z M 309.601562 213.601562 "/></clipPath><clipPath id="8750e5e055"><path d="M 396 213.601562 C 348.28125 213.601562 309.601562 252.28125 309.601562 300 C 309.601562 347.71875 348.28125 386.398438 396 386.398438 C 443.71875 386.398438 482.398438 347.71875 482.398438 300 C 482.398438 252.28125 443.71875 213.601562 396 213.601562 Z M 396 213.601562 "/></clipPath><clipPath id="d3d6a9a7c1"><path d="M 321.601562 225.601562 L 494.398438 225.601562 L 494.398438 398.398438 L 321.601562 398.398438 Z M 321.601562 225.601562 "/></clipPath><clipPath id="0f5a133a9e"><path d="M 408 225.601562 C 360.28125 225.601562 321.601562 264.28125 321.601562 312 C 321.601562 359.71875 360.28125 398.398438 408 398.398438 C 455.71875 398.398438 494.398438 359.71875 494.398438 312 C 494.398438 264.28125 455.71875 225.601562 408 225.601562 Z M 408 225.601562 "/></clipPath><clipPath id="b79c030e2b"><path d="M 333.601562 237.601562 L 506.398438 237.601562 L 506.398438 410.398438 L 333.601562 410.398438 Z M 333.601562 237.601562 "/></clipPath><clipPath id="d72188b88a"><path d="M 420 237.601562 C 372.28125 237.601562 333.601562 276.28125 333.601562 324 C 333.601562 371.71875 372.28125 410.398438 420 410.398438 C 467.71875 410.398438 506.398438 371.71875 506.398438 324 C 506.398438 276.28125 467.71875 237.601562 420 237.601562 Z M 420 237.601562 "/></clipPath><clipPath id="e6cdf55dfe"><path d="M 345.601562 249.601562 L 518.398438 249.601562 L 518.398438 422.398438 L 345.601562 422.398438 Z M 345.601562 249.601562 "/></clipPath><clipPath id="996fa18626"><path d="M 432 249.601562 C 384.28125 249.601562 345.601562 288.28125 345.601562 336 C 345.601562 383.71875 384.28125 422.398438 432 422.398438 C 479.71875 422.398438 518.398438 383.71875 518.398438 336 C 518.398438 288.28125 479.71875 249.601562 432 249.601562 Z M 432 249.601562 "/></clipPath><clipPath id="7979933d67"><path d="M 357.601562 261.601562 L 530.398438 261.601562 L 530.398438 434.398438 L 357.601562 434.398438 Z M 357.601562 261.601562 "/></clipPath><clipPath id="917de767e9"><path d="M 444 261.601562 C 396.28125 261.601562 357.601562 300.28125 357.601562 348 C 357.601562 395.71875 396.28125 434.398438 444 434.398438 C 491.71875 434.398438 530.398438 395.71875 530.398438 348 C 530.398438 300.28125 491.71875 261.601562 444 261.601562 Z M 444 261.601562 "/></clipPath><clipPath id="be4c78f763"><path d="M 369.601562 273.601562 L 542.398438 273.601562 L 542.398438 446.398438 L 369.601562 446.398438 Z M 369.601562 273.601562 "/></clipPath><clipPath id="2c1dad08ed"><path d="M 456 273.601562 C 408.28125 273.601562 369.601562 312.28125 369.601562 360 C 369.601562 407.71875 408.28125 446.398438 456 446.398438 C 503.71875 446.398438 542.398438 407.71875 542.398438 360 C 542.398438 312.28125 503.71875 273.601562 456 273.601562 Z M 456 273.601562 "/></clipPath><clipPath id="2457f61f37"><path d="M 381.601562 285.601562 L 554.398438 285.601562 L 554.398438 458.398438 L 381.601562 458.398438 Z M 381.601562 285.601562 "/></clipPath><clipPath id="79d936c6b5"><path d="M 468 285.601562 C 420.28125 285.601562 381.601562 324.28125 381.601562 372 C 381.601562 419.71875 420.28125 458.398438 468 458.398438 C 515.71875 458.398438 554.398438 419.71875 554.398438 372 C 554.398438 324.28125 515.71875 285.601562 468 285.601562 Z M 468 285.601562 "/></clipPath><clipPath id="63b3970d32"><path d="M 393.601562 297.601562 L 566.398438 297.601562 L 566.398438 470.398438 L 393.601562 470.398438 Z M 393.601562 297.601562 "/></clipPath><clipPath id="2e12bc6655"><path d="M 480 297.601562 C 432.28125 297.601562 393.601562 336.28125 393.601562 384 C 393.601562 431.71875 432.28125 470.398438 480 470.398438 C 527.71875 470.398438 566.398438 431.71875 566.398438 384 C 566.398438 336.28125 527.71875 297.601562 480 297.601562 Z M 480 297.601562 "/></clipPath><clipPath id="3a7d294593"><path d="M 405.601562 309.601562 L 578.398438 309.601562 L 578.398438 482.398438 L 405.601562 482.398438 Z M 405.601562 309.601562 "/></clipPath><clipPath id="0affc85669"><path d="M 492 309.601562 C 444.28125 309.601562 405.601562 348.28125 405.601562 396 C 405.601562 443.71875 444.28125 482.398438 492 482.398438 C 539.71875 482.398438 578.398438 443.71875 578.398438 396 C 578.398438 348.28125 539.71875 309.601562 492 309.601562 Z M 492 309.601562 "/></clipPath><clipPath id="135162c839"><path d="M 417.601562 321.601562 L 590.398438 321.601562 L 590.398438 494.398438 L 417.601562 494.398438 Z M 417.601562 321.601562 "/></clipPath><clipPath id="57a708bc68"><path d="M 504 321.601562 C 456.28125 321.601562 417.601562 360.28125 417.601562 408 C 417.601562 455.71875 456.28125 494.398438 504 494.398438 C 551.71875 494.398438 590.398438 455.71875 590.398438 408 C 590.398438 360.28125 551.71875 321.601562 504 321.601562 Z M 504 321.601562 "/></clipPath><clipPath id="25a769f727"><path d="M 429.601562 333.601562 L 602.398438 333.601562 L 602.398438 506.398438 L 429.601562 506.398438 Z M 429.601562 333.601562 "/></clipPath><clipPath id="f7a147719c"><path d="M 516 333.601562 C 468.28125 333.601562 429.601562 372.28125 429.601562 420 C 429.601562 467.71875 468.28125 506.398438 516 506.398438 C 563.71875 506.398438 602.398438 467.71875 602.398438 420 C 602.398438 372.28125 563.71875 333.601562 516 333.601562 Z M 516 333.601562 "/></clipPath><clipPath id="0d8cfe966a"><path d="M 441.601562 345.601562 L 614.398438 345.601562 L 614.398438 518.398438 L 441.601562 518.398438 Z M 441.601562 345.601562 "/></clipPath><clipPath id="4ba9aaf569"><path d="M 528 345.601562 C 480.28125 345.601562 441.601562 384.28125 441.601562 432 C 441.601562 479.71875 480.28125 518.398438 528 518.398438 C 575.71875 518.398438 614.398438 479.71875 614.398438 432 C 614.398438 384.28125 575.71875 345.601562 528 345.601562 Z M 528 345.601562 "/></clipPath><clipPath id="22f13bf32e"><path d="M 453.601562 357.601562 L 626.398438 357.601562 L 626.398438 530.398438 L 453.601562 530.398438 Z M 453.601562 357.601562 "/></clipPath><clipPath id="2b6eaa7aa8"><path d="M 540 357.601562 C 492.28125 357.601562 453.601562 396.28125 453.601562 444 C 453.601562 491.71875 492.28125 530.398438 540 530.398438 C 587.71875 530.398438 626.398438 491.71875 626.398438 444 C 626.398438 396.28125 587.71875 357.601562 540 357.601562 Z M 540 357.601562 "/></clipPath><clipPath id="fb72d4c1fb"><path d="M 465.601562 369.601562 L 638.398438 369.601562 L 638.398438 542.398438 L 465.601562 542.398438 Z M 465.601562 369.601562 "/></clipPath><clipPath id="4fbf327699"><path d="M 552 369.601562 C 504.28125 369.601562 465.601562 408.28125 465.601562 456 C 465.601562 503.71875 504.28125 542.398438 552 542.398438 C 599.71875 542.398438 638.398438 503.71875 638.398438 456 C 638.398438 408.28125 599.71875 369.601562 552 369.601562 Z M 552 369.601562 "/></clipPath><clipPath id="527c6254ee"><path d="M 477.601562 381.601562 L 650.398438 381.601562 L 650.398438 554.398438 L 477.601562 554.398438 Z M 477.601562 381.601562 "/></clipPath><clipPath id="606a1722fc"><path d="M 564 381.601562 C 516.28125 381.601562 477.601562 420.28125 477.601562 468 C 477.601562 515.71875 516.28125 554.398438 564 554.398438 C 611.71875 554.398438 650.398438 515.71875 650.398438 468 C 650.398438 420.28125 611.71875 381.601562 564 381.601562 Z M 564 381.601562 "/></clipPath><clipPath id="aee427b0e3"><path d="M 489.601562 393.601562 L 662.398438 393.601562 L 662.398438 566.398438 L 489.601562 566.398438 Z M 489.601562 393.601562 "/></clipPath><clipPath id="05ea1714db"><path d="M 576 393.601562 C 528.28125 393.601562 489.601562 432.28125 489.601562 480 C 489.601562 527.71875 528.28125 566.398438 576 566.398438 C 623.71875 566.398438 662.398438 527.71875 662.398438 480 C 662.398438 432.28125 623.71875 393.601562 576 393.601562 Z M 576 393.601562 "/></clipPath><clipPath id="3844473365"><path d="M 501.601562 405.601562 L 674.398438 405.601562 L 674.398438 576 L 501.601562 576 Z M 501.601562 405.601562 "/></clipPath><clipPath id="26d83bb12f"><path d="M 588 405.601562 C 540.28125 405.601562 501.601562 444.28125 501.601562 492 C 501.601562 539.71875 540.28125 578.398438 588 578.398438 C 635.71875 578.398438 674.398438 539.71875 674.398438 492 C 674.398438 444.28125 635.71875 405.601562 588 405.601562 Z M 588 405.601562 "/></clipPath><clipPath id="483171f7b5"><path d="M 513.601562 417.601562 L 686.398438 417.601562 L 686.398438 576 L 513.601562 576 Z M 513.601562 417.601562 "/></clipPath><clipPath id="3e51360c26"><path d="M 600 417.601562 C 552.28125 417.601562 513.601562 456.28125 513.601562 504 C 513.601562 551.71875 552.28125 590.398438 600 590.398438 C 647.71875 590.398438 686.398438 551.71875 686.398438 504 C 686.398438 456.28125 647.71875 417.601562 600 417.601562 Z M 600 417.601562 "/></clipPath><clipPath id="7f3e062db2"><path d="M 525.601562 429.601562 L 698.398438 429.601562 L 698.398438 576 L 525.601562 576 Z M 525.601562 429.601562 "/></clipPath><clipPath id="1026421f02"><path d="M 612 429.601562 C 564.28125 429.601562 525.601562 468.28125 525.601562 516 C 525.601562 563.71875 564.28125 602.398438 612 602.398438 C 659.71875 602.398438 698.398438 563.71875 698.398438 516 C 698.398438 468.28125 659.71875 429.601562 612 429.601562 Z M 612 429.601562 "/></clipPath><clipPath id="52d45af1e9"><path d="M 537.601562 441.601562 L 710.398438 441.601562 L 710.398438 576 L 537.601562 576 Z M 537.601562 441.601562 "/></clipPath><clipPath id="2aa2be44ff"><path d="M 624 441.601562 C 576.28125 441.601562 537.601562 480.28125 537.601562 528 C 537.601562 575.71875 576.28125 614.398438 624 614.398438 C 671.71875 614.398438 710.398438 575.71875 710.398438 528 C 710.398438 480.28125 671.71875 441.601562 624 441.601562 Z M 624 441.601562 "/></clipPath><filter x="0%" y="0%" width="100%" filterUnits="objectBoundingBox" id="e4e68fb2bd" height="100%"><feColorMatrix values="0 0 0 0 1 0 0 0 0 1 0 0 0 0 1 0 0 0 1 0" type="matrix" in="SourceGraphic"/></filter><clipPath id="da52eaf0a8"><rect x="0" width="768" y="0" height="576"/></clipPath></defs><g id="532ac5ba90"><rect x="0" width="768" y="0" height="576" style="fill:#ffffff;fill-opacity:1;stroke:none;"/><rect x="0" width="768" y="0" height="576" style="fill:#ffd21f;fill-opacity:1;stroke:none;"/><path style=" stroke:none;fill-rule:nonzero;fill:#ffd21f;fill-opacity:1;" d="M 0 0 L 767.25 0 L 767.25 576 L 0 576 Z M 0 0 "/><g clip-rule="nonzero" clip-path="url(#134bcfb4eb)"><g clip-rule="nonzero" clip-path="url(#c3c96d24be)"><path style=" stroke:none;fill-rule:nonzero;fill:#ffd21f;fill-opacity:1;" d="M 297.601562 201.601562 L 470.398438 201.601562 L 470.398438 374.398438 L 297.601562 374.398438 Z M 297.601562 201.601562 "/></g></g><g clip-rule="nonzero" clip-path="url(#0c1d56550b)"><g clip-rule="nonzero" clip-path="url(#8750e5e055)"><path style=" stroke:none;fill-rule:nonzero;fill:#ffd21f;fill-opacity:1;" d="M 309.601562 213.601562 L 482.398438 213.601562 L 482.398438 386.398438 L 309.601562 386.398438 Z M 309.601562 213.601562 "/></g></g><g clip-rule="nonzero" clip-path="url(#d3d6a9a7c1)"><g clip-rule="nonzero" clip-path="url(#0f5a133a9e)"><path style=" stroke:none;fill-rule:nonzero;fill:#ffd21f;fill-opacity:1;" d="M 321.601562 225.601562 L 494.398438 225.601562 L 494.398438 398.398438 L 321.601562 398.398438 Z M 321.601562 225.601562 "/></g></g><g clip-rule="nonzero" clip-path="url(#b79c030e2b)"><g clip-rule="nonzero" clip-path="url(#d72188b88a)"><path style=" stroke:none;fill-rule:nonzero;fill:#ffd21f;fill-opacity:1;" d="M 333.601562 237.601562 L 506.398438 237.601562 L 506.398438 410.398438 L 333.601562 410.398438 Z M 333.601562 237.601562 "/></g></g><g clip-rule="nonzero" clip-path="url(#e6cdf55dfe)"><g clip-rule="nonzero" clip-path="url(#996fa18626)"><path style=" stroke:none;fill-rule:nonzero;fill:#ffd21f;fill-opacity:1;" d="M 345.601562 249.601562 L 518.398438 249.601562 L 518.398438 422.398438 L 345.601562 422.398438 Z M 345.601562 249.601562 "/></g></g><g clip-rule="nonzero" clip-path="url(#7979933d67)"><g clip-rule="nonzero" clip-path="url(#917de767e9)"><path style=" stroke:none;fill-rule:nonzero;fill:#ffd21f;fill-opacity:1;" d="M 357.601562 261.601562 L 530.398438 261.601562 L 530.398438 434.398438 L 357.601562 434.398438 Z M 357.601562 261.601562 "/></g></g><g clip-rule="nonzero" clip-path="url(#be4c78f763)"><g clip-rule="nonzero" clip-path="url(#2c1dad08ed)"><path style=" stroke:none;fill-rule:nonzero;fill:#ffd21f;fill-opacity:1;" d="M 369.601562 273.601562 L 542.398438 273.601562 L 542.398438 446.398438 L 369.601562 446.398438 Z M 369.601562 273.601562 "/></g></g><g clip-rule="nonzero" clip-path="url(#2457f61f37)"><g clip-rule="nonzero" clip-path="url(#79d936c6b5)"><path style=" stroke:none;fill-rule:nonzero;fill:#ffd21f;fill-opacity:1;" d="M 381.601562 285.601562 L 554.398438 285.601562 L 554.398438 458.398438 L 381.601562 458.398438 Z M 381.601562 285.601562 "/></g></g><g clip-rule="nonzero" clip-path="url(#63b3970d32)"><g clip-rule="nonzero" clip-path="url(#2e12bc6655)"><path style=" stroke:none;fill-rule:nonzero;fill:#ffd21f;fill-opacity:1;" d="M 393.601562 297.601562 L 566.398438 297.601562 L 566.398438 470.398438 L 393.601562 470.398438 Z M 393.601562 297.601562 "/></g></g><g clip-rule="nonzero" clip-path="url(#3a7d294593)"><g clip-rule="nonzero" clip-path="url(#0affc85669)"><path style=" stroke:none;fill-rule:nonzero;fill:#ffd21f;fill-opacity:1;" d="M 405.601562 309.601562 L 578.398438 309.601562 L 578.398438 482.398438 L 405.601562 482.398438 Z M 405.601562 309.601562 "/></g></g><g clip-rule="nonzero" clip-path="url(#135162c839)"><g clip-rule="nonzero" clip-path="url(#57a708bc68)"><path style=" stroke:none;fill-rule:nonzero;fill:#ffd21f;fill-opacity:1;" d="M 417.601562 321.601562 L 590.398438 321.601562 L 590.398438 494.398438 L 417.601562 494.398438 Z M 417.601562 321.601562 "/></g></g><g clip-rule="nonzero" clip-path="url(#25a769f727)"><g clip-rule="nonzero" clip-path="url(#f7a147719c)"><path style=" stroke:none;fill-rule:nonzero;fill:#ffd21f;fill-opacity:1;" d="M 429.601562 333.601562 L 602.398438 333.601562 L 602.398438 506.398438 L 429.601562 506.398438 Z M 429.601562 333.601562 "/></g></g><g clip-rule="nonzero" clip-path="url(#0d8cfe966a)"><g clip-rule="nonzero" clip-path="url(#4ba9aaf569)"><path style=" stroke:none;fill-rule:nonzero;fill:#ffd21f;fill-opacity:1;" d="M 441.601562 345.601562 L 614.398438 345.601562 L 614.398438 518.398438 L 441.601562 518.398438 Z M 441.601562 345.601562 "/></g></g><g clip-rule="nonzero" clip-path="url(#22f13bf32e)"><g clip-rule="nonzero" clip-path="url(#2b6eaa7aa8)"><path style=" stroke:none;fill-rule:nonzero;fill:#ffd21f;fill-opacity:1;" d="M 453.601562 357.601562 L 626.398438 357.601562 L 626.398438 530.398438 L 453.601562 530.398438 Z M 453.601562 357.601562 "/></g></g><g clip-rule="nonzero" clip-path="url(#fb72d4c1fb)"><g clip-rule="nonzero" clip-path="url(#4fbf327699)"><path style=" stroke:none;fill-rule:nonzero;fill:#ffd21f;fill-opacity:1;" d="M 465.601562 369.601562 L 638.398438 369.601562 L 638.398438 542.398438 L 465.601562 542.398438 Z M 465.601562 369.601562 "/></g></g><g clip-rule="nonzero" clip-path="url(#527c6254ee)"><g clip-rule="nonzero" clip-path="url(#606a1722fc)"><path style=" stroke:none;fill-rule:nonzero;fill:#ffd21f;fill-opacity:1;" d="M 477.601562 381.601562 L 650.398438 381.601562 L 650.398438 554.398438 L 477.601562 554.398438 Z M 477.601562 381.601562 "/></g></g><g clip-rule="nonzero" clip-path="url(#aee427b0e3)"><g clip-rule="nonzero" clip-path="url(#05ea1714db)"><path style=" stroke:none;fill-rule:nonzero;fill:#ffd21f;fill-opacity:1;" d="M 489.601562 393.601562 L 662.398438 393.601562 L 662.398438 566.398438 L 489.601562 566.398438 Z M 489.601562 393.601562 "/></g></g><g clip-rule="nonzero" clip-path="url(#3844473365)"><g clip-rule="nonzero" clip-path="url(#26d83bb12f)"><path style=" stroke:none;fill-rule:nonzero;fill:#ffd21f;fill-opacity:1;" d="M 501.601562 405.601562 L 674.398438 405.601562 L 674.398438 578.398438 L 501.601562 578.398438 Z M 501.601562 405.601562 "/></g></g><g clip-rule="nonzero" clip-path="url(#483171f7b5)"><g clip-rule="nonzero" clip-path="url(#3e51360c26)"><path style=" stroke:none;fill-rule:nonzero;fill:#ffd21f;fill-opacity:1;" d="M 513.601562 417.601562 L 686.398438 417.601562 L 686.398438 590.398438 L 513.601562 590.398438 Z M 513.601562 417.601562 "/></g></g><g clip-rule="nonzero" clip-path="url(#7f3e062db2)"><g clip-rule="nonzero" clip-path="url(#1026421f02)"><path style=" stroke:none;fill-rule:nonzero;fill:#ffd21f;fill-opacity:1;" d="M 525.601562 429.601562 L 698.398438 429.601562 L 698.398438 602.398438 L 525.601562 602.398438 Z M 525.601562 429.601562 "/></g></g><g clip-rule="nonzero" clip-path="url(#52d45af1e9)"><g clip-rule="nonzero" clip-path="url(#2aa2be44ff)"><path style=" stroke:none;fill-rule:nonzero;fill:#ffd21f;fill-opacity:1;" d="M 537.601562 441.601562 L 710.398438 441.601562 L 710.398438 614.398438 L 537.601562 614.398438 Z M 537.601562 441.601562 "/></g></g><g style="fill:#ffd21f;fill-opacity:1;"><g transform="translate(136.690425, 286.039842)"><path style="stroke:none" d="M 11.640625 0.484375 C 10.035156 0.484375 8.550781 0.273438 7.1875 -0.140625 C 5.820312 -0.566406 4.664062 -1.148438 3.71875 -1.890625 C 2.78125 -2.640625 2.117188 -3.476562 1.734375 -4.40625 L 3.953125 -6.71875 L 4.453125 -6.71875 C 5.285156 -5.445312 6.285156 -4.488281 7.453125 -3.84375 C 8.628906 -3.207031 10.023438 -2.890625 11.640625 -2.890625 C 13.523438 -2.890625 14.957031 -3.253906 15.9375 -3.984375 C 16.914062 -4.722656 17.40625 -5.75 17.40625 -7.0625 C 17.40625 -8.0625 17.109375 -8.890625 16.515625 -9.546875 C 15.921875 -10.203125 14.960938 -10.691406 13.640625 -11.015625 L 9.328125 -12.09375 C 7.023438 -12.644531 5.34375 -13.519531 4.28125 -14.71875 C 3.226562 -15.925781 2.703125 -17.421875 2.703125 -19.203125 C 2.703125 -20.585938 3.054688 -21.789062 3.765625 -22.8125 C 4.484375 -23.84375 5.507812 -24.632812 6.84375 -25.1875 C 8.175781 -25.75 9.757812 -26.03125 11.59375 -26.03125 C 13.945312 -26.03125 15.796875 -25.703125 17.140625 -25.046875 C 18.492188 -24.390625 19.550781 -23.472656 20.3125 -22.296875 L 18.171875 -20.21875 L 17.71875 -20.21875 C 16.894531 -21.15625 16 -21.832031 15.03125 -22.25 C 14.070312 -22.664062 12.925781 -22.875 11.59375 -22.875 C 9.914062 -22.875 8.628906 -22.570312 7.734375 -21.96875 C 6.835938 -21.375 6.390625 -20.503906 6.390625 -19.359375 C 6.390625 -18.328125 6.707031 -17.492188 7.34375 -16.859375 C 7.976562 -16.222656 9.082031 -15.710938 10.65625 -15.328125 L 14.890625 -14.3125 C 17.109375 -13.78125 18.710938 -12.90625 19.703125 -11.6875 C 20.691406 -10.46875 21.1875 -8.941406 21.1875 -7.109375 C 21.1875 -5.609375 20.832031 -4.285156 20.125 -3.140625 C 19.414062 -2.003906 18.34375 -1.113281 16.90625 -0.46875 C 15.46875 0.164062 13.710938 0.484375 11.640625 0.484375 Z M 11.640625 0.484375 "/></g></g><g style="fill:#ffd21f;fill-opacity:1;"><g transform="translate(160.304849, 286.039842)"><path style="stroke:none" d="M 13.25 0.484375 C 11.195312 0.484375 9.382812 -0.00390625 7.8125 -0.984375 C 6.25 -1.960938 5.019531 -3.4375 4.125 -5.40625 C 3.238281 -7.382812 2.796875 -9.835938 2.796875 -12.765625 C 2.796875 -15.679688 3.257812 -18.128906 4.1875 -20.109375 C 5.113281 -22.085938 6.390625 -23.566406 8.015625 -24.546875 C 9.648438 -25.535156 11.539062 -26.03125 13.6875 -26.03125 C 15.382812 -26.03125 16.910156 -25.707031 18.265625 -25.0625 C 19.628906 -24.425781 20.796875 -23.375 21.765625 -21.90625 L 22.25 -22 L 22.25 -35.796875 L 26.03125 -35.796875 L 26.03125 0 L 22.25 0 L 22.25 -3.734375 L 21.765625 -3.828125 C 20.929688 -2.554688 19.800781 -1.519531 18.375 -0.71875 C 16.945312 0.0820312 15.238281 0.484375 13.25 0.484375 Z M 14.421875 -2.890625 C 16.796875 -2.890625 18.691406 -3.703125 20.109375 -5.328125 C 21.535156 -6.960938 22.25 -9.441406 22.25 -12.765625 C 22.25 -16.097656 21.535156 -18.578125 20.109375 -20.203125 C 18.691406 -21.828125 16.796875 -22.640625 14.421875 -22.640625 C 11.972656 -22.640625 10.082031 -21.84375 8.75 -20.25 C 7.425781 -18.664062 6.765625 -16.171875 6.765625 -12.765625 C 6.765625 -6.179688 9.316406 -2.890625 14.421875 -2.890625 Z M 14.421875 -2.890625 "/></g></g><g style="fill:#ffd21f;fill-opacity:1;"><g transform="translate(190.795239, 286.039842)"><path style="stroke:none" d="M 5.703125 0 L 5.703125 -22.453125 L 1.25 -22.453125 L 1.25 -25.5625 L 5.703125 -25.5625 C 5.421875 -26.675781 5.28125 -27.734375 5.28125 -28.734375 C 5.28125 -30.390625 5.628906 -31.78125 6.328125 -32.90625 C 7.035156 -34.039062 8.015625 -34.882812 9.265625 -35.4375 C 10.515625 -36 11.957031 -36.28125 13.59375 -36.28125 C 16.132812 -36.28125 18.085938 -35.734375 19.453125 -34.640625 L 17.984375 -31.984375 L 17.5 -31.890625 C 16.5 -32.691406 15.195312 -33.09375 13.59375 -33.09375 C 12.09375 -33.09375 10.957031 -32.703125 10.1875 -31.921875 C 9.425781 -31.148438 9.046875 -30.054688 9.046875 -28.640625 C 9.046875 -27.765625 9.1875 -26.738281 9.46875 -25.5625 L 17.59375 -25.5625 L 17.59375 -22.453125 L 9.46875 -22.453125 L 9.46875 0 Z M 5.703125 0 "/></g></g><g style="fill:#ffd21f;fill-opacity:1;"><g transform="translate(207.927249, 286.039842)"><path style="stroke:none" d="M 13.15625 10.84375 C 9.125 10.84375 6.179688 10.171875 4.328125 8.828125 C 2.472656 7.484375 1.546875 5.695312 1.546875 3.46875 C 1.546875 2.03125 1.976562 0.882812 2.84375 0.03125 C 3.707031 -0.8125 4.96875 -1.414062 6.625 -1.78125 L 6.625 -2.265625 C 5.832031 -2.710938 5.238281 -3.238281 4.84375 -3.84375 C 4.457031 -4.445312 4.265625 -5.164062 4.265625 -6 C 4.265625 -6.988281 4.578125 -7.789062 5.203125 -8.40625 C 5.828125 -9.019531 6.753906 -9.488281 7.984375 -9.8125 L 7.984375 -10.296875 C 5.210938 -11.765625 3.828125 -14.148438 3.828125 -17.453125 C 3.828125 -19.117188 4.203125 -20.597656 4.953125 -21.890625 C 5.710938 -23.191406 6.789062 -24.207031 8.1875 -24.9375 C 9.59375 -25.664062 11.234375 -26.03125 13.109375 -26.03125 C 15.253906 -26.03125 17.046875 -25.554688 18.484375 -24.609375 C 19.015625 -25.210938 19.414062 -25.859375 19.6875 -26.546875 C 19.957031 -27.234375 20.132812 -28.007812 20.21875 -28.875 L 20.703125 -29.171875 L 23.796875 -28.4375 C 23.648438 -27.132812 23.265625 -26.035156 22.640625 -25.140625 C 22.015625 -24.242188 21.128906 -23.503906 19.984375 -22.921875 L 19.984375 -22.4375 C 20.796875 -21.789062 21.398438 -21.03125 21.796875 -20.15625 C 22.191406 -19.28125 22.390625 -18.265625 22.390625 -17.109375 C 22.390625 -15.503906 22.003906 -14.0625 21.234375 -12.78125 C 20.460938 -11.5 19.375 -10.488281 17.96875 -9.75 C 16.5625 -9.019531 14.941406 -8.65625 13.109375 -8.65625 C 12.890625 -8.65625 12.503906 -8.671875 11.953125 -8.703125 C 11.328125 -8.734375 10.867188 -8.75 10.578125 -8.75 C 9.773438 -8.75 9.132812 -8.539062 8.65625 -8.125 C 8.175781 -7.707031 7.9375 -7.175781 7.9375 -6.53125 C 7.9375 -5.726562 8.195312 -5.132812 8.71875 -4.75 C 9.238281 -4.375 10.09375 -4.164062 11.28125 -4.125 L 17.3125 -3.90625 C 19.925781 -3.820312 21.859375 -3.21875 23.109375 -2.09375 C 24.367188 -0.976562 25 0.601562 25 2.65625 C 25 4.1875 24.585938 5.566406 23.765625 6.796875 C 22.953125 8.023438 21.660156 9.003906 19.890625 9.734375 C 18.117188 10.472656 15.875 10.84375 13.15625 10.84375 Z M 13.109375 -11.90625 C 14.910156 -11.90625 16.304688 -12.375 17.296875 -13.3125 C 18.285156 -14.257812 18.78125 -15.582031 18.78125 -17.28125 C 18.78125 -19.03125 18.289062 -20.382812 17.3125 -21.34375 C 16.332031 -22.300781 14.929688 -22.78125 13.109375 -22.78125 C 11.285156 -22.78125 9.894531 -22.304688 8.9375 -21.359375 C 7.976562 -20.410156 7.5 -19.050781 7.5 -17.28125 C 7.5 -15.5625 7.976562 -14.234375 8.9375 -13.296875 C 9.894531 -12.367188 11.285156 -11.90625 13.109375 -11.90625 Z M 13.15625 7.59375 C 15.039062 7.59375 16.578125 7.382812 17.765625 6.96875 C 18.960938 6.550781 19.820312 6 20.34375 5.3125 C 20.875 4.625 21.140625 3.859375 21.140625 3.015625 C 21.140625 2.253906 20.992188 1.640625 20.703125 1.171875 C 20.421875 0.710938 19.960938 0.367188 19.328125 0.140625 C 18.703125 -0.0859375 17.835938 -0.234375 16.734375 -0.296875 L 11.015625 -0.578125 L 10.21875 -0.578125 C 7.019531 -0.535156 5.421875 0.707031 5.421875 3.15625 C 5.421875 6.113281 8 7.59375 13.15625 7.59375 Z M 13.15625 7.59375 "/></g></g><g style="fill:#ffd21f;fill-opacity:1;"><g transform="translate(234.088328, 286.039842)"><path style="stroke:none" d="M 4.453125 0 L 4.453125 -35.796875 L 8.21875 -35.796875 L 8.21875 -21.90625 L 8.703125 -21.8125 C 10.523438 -24.625 13.160156 -26.03125 16.609375 -26.03125 C 19.671875 -26.03125 21.894531 -25.242188 23.28125 -23.671875 C 24.664062 -22.109375 25.359375 -19.695312 25.359375 -16.4375 L 25.359375 0 L 21.578125 0 L 21.578125 -16.34375 C 21.578125 -17.882812 21.378906 -19.125 20.984375 -20.0625 C 20.597656 -21 19.988281 -21.675781 19.15625 -22.09375 C 18.332031 -22.519531 17.25 -22.734375 15.90625 -22.734375 C 13.59375 -22.734375 11.734375 -21.984375 10.328125 -20.484375 C 8.921875 -18.992188 8.21875 -16.535156 8.21875 -13.109375 L 8.21875 0 Z M 4.453125 0 "/></g></g><g style="fill:#ffd21f;fill-opacity:1;"><g transform="translate(263.490601, 286.039842)"><path style="stroke:none" d="M 6.34375 -30.46875 C 5.539062 -30.46875 4.890625 -30.71875 4.390625 -31.21875 C 3.890625 -31.726562 3.640625 -32.367188 3.640625 -33.140625 C 3.640625 -33.910156 3.890625 -34.546875 4.390625 -35.046875 C 4.890625 -35.546875 5.539062 -35.796875 6.34375 -35.796875 C 7.144531 -35.796875 7.796875 -35.546875 8.296875 -35.046875 C 8.796875 -34.546875 9.046875 -33.910156 9.046875 -33.140625 C 9.046875 -32.367188 8.796875 -31.726562 8.296875 -31.21875 C 7.796875 -30.71875 7.144531 -30.46875 6.34375 -30.46875 Z M 1.25 10.84375 C 0.445312 10.84375 -0.257812 10.78125 -0.875 10.65625 C -1.5 10.539062 -2.09375 10.378906 -2.65625 10.171875 L -2.078125 7.25 L -1.640625 7.109375 C -0.867188 7.398438 -0.0820312 7.546875 0.71875 7.546875 C 1.925781 7.546875 2.847656 7.144531 3.484375 6.34375 C 4.128906 5.550781 4.453125 4.414062 4.453125 2.9375 L 4.453125 -25.546875 L 8.21875 -25.546875 L 8.21875 2.796875 C 8.21875 5.359375 7.609375 7.335938 6.390625 8.734375 C 5.171875 10.140625 3.457031 10.84375 1.25 10.84375 Z M 1.25 10.84375 "/></g></g><g style="fill:#ffd21f;fill-opacity:1;"><g transform="translate(276.154415, 286.039842)"><path style="stroke:none" d="M 4.453125 0 L 4.453125 -35.796875 L 8.21875 -35.796875 L 8.21875 -14.890625 L 8.84375 -14.890625 L 18.34375 -25.546875 L 22.296875 -25.546875 L 22.296875 -25 L 12.171875 -13.546875 L 23.265625 -0.578125 L 23.265625 0 L 19.0625 0 L 8.84375 -11.8125 L 8.21875 -11.8125 L 8.21875 0 Z M 4.453125 0 "/></g></g><g style="fill:#ffd21f;fill-opacity:1;"><g transform="translate(299.907748, 286.039842)"><path style="stroke:none" d="M 10.171875 0.484375 C 8.359375 0.484375 6.9375 -0.0234375 5.90625 -1.046875 C 4.875 -2.078125 4.359375 -3.613281 4.359375 -5.65625 L 4.359375 -35.796875 L 8.125 -35.796875 L 8.125 -5.90625 C 8.125 -4.84375 8.328125 -4.070312 8.734375 -3.59375 C 9.148438 -3.125 9.789062 -2.890625 10.65625 -2.890625 C 11.175781 -2.890625 11.707031 -2.976562 12.25 -3.15625 L 12.578125 -3.0625 L 13.015625 -0.09375 C 12.734375 0.09375 12.332031 0.234375 11.8125 0.328125 C 11.300781 0.429688 10.753906 0.484375 10.171875 0.484375 Z M 10.171875 0.484375 "/></g></g><g mask="url(#3ad2485f1d)" transform="matrix(1,0,0,1,0,-0.000000000000014788)"><g clip-path="url(#da52eaf0a8)"><path style=" stroke:none;fill-rule:nonzero;fill:#f3f6f4;fill-opacity:1;" d="M 600.914062 255.789062 C 602.019531 254.679688 603.496094 254.074219 605.0625 254.074219 C 606.632812 254.074219 608.101562 254.679688 609.214844 255.789062 C 611.5 258.078125 611.5 261.800781 609.214844 264.089844 C 608.101562 265.199219 606.632812 265.804688 605.0625 265.804688 C 603.496094 265.804688 602.019531 265.199219 600.914062 264.089844 C 598.621094 261.800781 598.621094 258.078125 600.914062 255.789062 Z M 600.316406 477.082031 C 601.425781 475.96875 602.902344 475.363281 604.46875 475.363281 C 606.039062 475.363281 607.507812 475.96875 608.617188 477.082031 C 609.722656 478.191406 610.335938 479.660156 610.335938 481.230469 C 610.335938 482.796875 609.722656 484.273438 608.617188 485.378906 C 607.507812 486.488281 606.039062 487.101562 604.46875 487.101562 C 602.902344 487.101562 601.425781 486.488281 600.316406 485.378906 C 598.027344 483.089844 598.027344 479.367188 600.316406 477.082031 Z M 513.429688 348.929688 L 513.429688 393.019531 L 470.300781 435.3125 C 469.785156 435.8125 469.503906 436.496094 469.503906 437.203125 L 469.503906 525.753906 C 469.503906 526.460938 469.78125 527.132812 470.28125 527.632812 L 513.683594 571.039062 C 514.109375 571.9375 515.019531 572.5625 516.082031 572.5625 L 557.613281 572.5625 L 558.453125 660.886719 L 563.746094 660.886719 L 562.882812 569.890625 L 562.882812 526.558594 L 598.753906 490.6875 C 603.007812 493.257812 608.621094 492.71875 612.289062 489.054688 C 616.605469 484.742188 616.605469 477.71875 612.289062 473.410156 C 607.976562 469.089844 600.957031 469.089844 596.644531 473.410156 C 592.976562 477.074219 592.4375 482.6875 595.011719 486.945312 L 558.367188 523.589844 C 557.863281 524.085938 557.589844 524.761719 557.589844 525.460938 L 557.589844 567.269531 L 517.40625 567.269531 L 474.796875 524.660156 L 474.796875 438.316406 L 517.933594 396.019531 C 518.441406 395.523438 518.722656 394.84375 518.722656 394.128906 L 518.722656 350.023438 L 599.347656 269.398438 C 603.601562 271.96875 609.214844 271.433594 612.882812 267.765625 C 612.890625 267.765625 612.890625 267.765625 612.890625 267.765625 C 617.203125 263.445312 617.203125 256.433594 612.890625 252.121094 C 608.570312 247.800781 601.550781 247.800781 597.238281 252.121094 C 593.570312 255.789062 593.035156 261.402344 595.605469 265.65625 L 514.203125 347.050781 C 513.710938 347.550781 513.429688 348.222656 513.429688 348.929688 "/><path style=" stroke:none;fill-rule:nonzero;fill:#f3f6f4;fill-opacity:1;" d="M 769.535156 310.5 C 766.300781 310.5 763.664062 307.871094 763.664062 304.636719 C 763.664062 301.394531 766.300781 298.765625 769.535156 298.765625 C 772.769531 298.765625 775.40625 301.394531 775.40625 304.636719 C 775.40625 307.871094 772.769531 310.5 769.535156 310.5 Z M 737.070312 342.914062 C 740.304688 342.914062 742.941406 345.550781 742.941406 348.785156 C 742.941406 352.019531 740.304688 354.65625 737.070312 354.65625 C 733.835938 354.65625 731.199219 352.019531 731.199219 348.785156 C 731.199219 345.550781 733.835938 342.914062 737.070312 342.914062 Z M 610.929688 391.53125 C 610.929688 394.773438 608.296875 397.402344 605.0625 397.402344 C 601.824219 397.402344 599.199219 394.773438 599.199219 391.53125 C 599.199219 388.296875 601.824219 385.660156 605.0625 385.660156 C 608.296875 385.660156 610.929688 388.296875 610.929688 391.53125 Z M 769.535156 293.570312 C 764.347656 293.570312 760 297.164062 758.804688 301.988281 L 648.621094 301.988281 C 647.914062 301.988281 647.238281 302.265625 646.746094 302.765625 C 646.25 303.265625 645.96875 303.941406 645.976562 304.648438 L 646.207031 346.136719 L 605.707031 346.136719 C 605.5 346.085938 605.285156 346.050781 605.066406 346.050781 C 603.601562 346.050781 602.414062 347.238281 602.414062 348.703125 L 602.414062 380.804688 C 597.597656 381.996094 593.996094 386.351562 593.996094 391.53125 C 593.996094 397.632812 598.964844 402.59375 605.0625 402.59375 C 611.164062 402.59375 616.125 397.632812 616.125 391.53125 C 616.125 386.351562 612.53125 381.996094 607.714844 380.804688 L 607.714844 351.4375 L 726.335938 351.4375 C 727.53125 356.257812 731.882812 359.847656 737.070312 359.847656 C 743.171875 359.847656 748.132812 354.886719 748.132812 348.785156 C 748.132812 342.683594 743.171875 337.722656 737.070312 337.722656 C 731.882812 337.722656 727.53125 341.3125 726.335938 346.136719 L 651.5 346.136719 L 651.289062 307.28125 L 758.804688 307.28125 C 760 312.101562 764.347656 315.699219 769.535156 315.699219 C 775.636719 315.699219 780.597656 310.730469 780.597656 304.636719 C 780.597656 298.535156 775.636719 293.570312 769.535156 293.570312 "/><path style=" stroke:none;fill-rule:nonzero;fill:#f3f6f4;fill-opacity:1;" d="M 612.683594 267.964844 C 612.753906 267.894531 612.816406 267.839844 612.890625 267.765625 L 612.882812 267.765625 C 612.820312 267.832031 612.753906 267.894531 612.683594 267.964844 "/><path style=" stroke:none;fill-rule:nonzero;fill:#f3f6f4;fill-opacity:1;" d="M 609.246094 613.234375 C 609.246094 616.46875 606.613281 619.097656 603.378906 619.097656 C 600.144531 619.097656 597.507812 616.46875 597.507812 613.234375 C 597.507812 609.992188 600.144531 607.363281 603.378906 607.363281 C 606.613281 607.363281 609.246094 609.992188 609.246094 613.234375 Z M 737.070312 430.316406 C 740.304688 430.316406 742.941406 432.953125 742.941406 436.1875 C 742.941406 439.421875 740.304688 442.058594 737.070312 442.058594 C 733.835938 442.058594 731.199219 439.421875 731.199219 436.1875 C 731.199219 432.953125 733.835938 430.316406 737.070312 430.316406 Z M 600.730469 525.40625 L 600.730469 602.5 C 595.90625 603.691406 592.3125 608.046875 592.3125 613.234375 C 592.3125 619.328125 597.277344 624.296875 603.378906 624.296875 C 609.480469 624.296875 614.441406 619.328125 614.441406 613.234375 C 614.441406 608.046875 610.851562 603.691406 606.023438 602.5 L 606.023438 526.5 L 693.695312 438.835938 L 726.335938 438.835938 C 727.53125 443.660156 731.882812 447.25 737.070312 447.25 C 743.171875 447.25 748.132812 442.289062 748.132812 436.1875 C 748.132812 430.085938 743.171875 425.125 737.070312 425.125 C 731.882812 425.125 727.53125 428.714844 726.335938 433.539062 L 692.59375 433.539062 C 691.894531 433.539062 691.226562 433.816406 690.722656 434.316406 L 601.507812 523.535156 C 601.011719 524.027344 600.730469 524.703125 600.730469 525.40625 "/><path style=" stroke:none;fill-rule:nonzero;fill:#f3f6f4;fill-opacity:1;" d="M 510.210938 84.234375 C 510.210938 81 512.839844 78.367188 516.074219 78.367188 C 519.308594 78.367188 521.945312 81 521.945312 84.234375 C 521.945312 87.472656 519.308594 90.105469 516.074219 90.105469 C 512.839844 90.105469 510.210938 87.472656 510.210938 84.234375 Z M 428.773438 266.988281 C 425.539062 266.988281 422.902344 264.355469 422.902344 261.117188 C 422.902344 257.882812 425.539062 255.25 428.773438 255.25 C 432.007812 255.25 434.640625 257.882812 434.640625 261.117188 C 434.640625 264.355469 432.007812 266.988281 428.773438 266.988281 Z M 470.550781 258.472656 L 439.5 258.472656 C 438.308594 253.648438 433.960938 250.054688 428.773438 250.054688 C 422.671875 250.054688 417.707031 255.019531 417.707031 261.117188 C 417.707031 267.21875 422.671875 272.183594 428.773438 272.183594 C 433.960938 272.183594 438.308594 268.589844 439.5 263.765625 L 471.652344 263.765625 C 472.351562 263.765625 473.027344 263.492188 473.523438 262.988281 L 517.953125 218.566406 C 518.445312 218.070312 518.722656 217.394531 518.722656 216.695312 L 518.722656 94.960938 C 523.546875 93.773438 527.140625 89.417969 527.140625 84.234375 C 527.140625 78.132812 522.175781 73.171875 516.074219 73.171875 C 509.980469 73.171875 505.011719 78.132812 505.011719 84.234375 C 505.011719 89.417969 508.609375 93.773438 513.429688 94.960938 L 513.429688 215.59375 L 470.550781 258.472656 "/><path style=" stroke:none;fill-rule:nonzero;fill:#f3f6f4;fill-opacity:1;" d="M 737.070312 475.363281 C 740.304688 475.363281 742.941406 477.996094 742.941406 481.230469 C 742.941406 484.464844 740.304688 487.101562 737.070312 487.101562 C 733.835938 487.101562 731.199219 484.464844 731.199219 481.230469 C 731.199219 477.996094 733.835938 475.363281 737.070312 475.363281 Z M 650.78125 525.917969 L 692.820312 483.878906 L 726.335938 483.878906 C 727.53125 488.703125 731.882812 492.296875 737.070312 492.296875 C 743.171875 492.296875 748.132812 487.328125 748.132812 481.230469 C 748.132812 475.128906 743.171875 470.167969 737.070312 470.167969 C 731.882812 470.167969 727.53125 473.757812 726.335938 478.578125 L 691.726562 478.578125 C 691.023438 478.578125 690.347656 478.859375 689.855469 479.359375 L 646.257812 522.953125 C 645.753906 523.453125 645.472656 524.136719 645.480469 524.84375 L 646.113281 660.886719 L 651.40625 660.886719 L 650.78125 525.917969 "/><path style=" stroke:none;fill-rule:nonzero;fill:#f3f6f4;fill-opacity:1;" d="M 768.960938 33.234375 C 772.195312 33.234375 774.828125 35.867188 774.828125 39.105469 C 774.828125 42.339844 772.195312 44.972656 768.960938 44.972656 C 765.722656 44.972656 763.089844 42.339844 763.089844 39.105469 C 763.089844 35.867188 765.722656 33.234375 768.960938 33.234375 Z M 736.925781 -54.28125 C 740.167969 -54.28125 742.796875 -51.644531 742.796875 -48.410156 C 742.796875 -45.167969 740.167969 -42.542969 736.925781 -42.542969 C 733.691406 -42.542969 731.054688 -45.167969 731.054688 -48.410156 C 731.054688 -51.644531 733.691406 -54.28125 736.925781 -54.28125 Z M 783.679688 -1.789062 L 783.679688 -7.089844 L 694.292969 -7.089844 L 694.292969 -45.945312 L 726.148438 -45.945312 C 727.277344 -41.027344 731.675781 -37.347656 736.925781 -37.347656 C 743.027344 -37.347656 747.988281 -42.308594 747.988281 -48.410156 C 747.988281 -54.507812 743.027344 -59.46875 736.925781 -59.46875 C 731.808594 -59.46875 727.5 -55.96875 726.242188 -51.238281 L 694.292969 -51.238281 L 694.292969 -90.488281 L 738.773438 -133.699219 C 739.285156 -134.199219 739.578125 -134.882812 739.578125 -135.601562 L 739.578125 -140.113281 L 734.277344 -140.113281 L 734.277344 -136.722656 L 689.796875 -93.511719 C 689.285156 -93.011719 688.992188 -92.328125 688.992188 -91.609375 L 688.992188 40.082031 C 688.992188 41.546875 690.179688 42.726562 691.644531 42.726562 L 758.523438 42.726562 C 760.023438 47.050781 764.136719 50.167969 768.960938 50.167969 C 775.0625 50.167969 780.023438 45.207031 780.023438 39.105469 C 780.023438 33.003906 775.0625 28.039062 768.960938 28.039062 C 763.429688 28.039062 758.847656 32.125 758.035156 37.433594 L 694.292969 37.433594 L 694.292969 -1.789062 L 783.679688 -1.789062 "/><path style=" stroke:none;fill-rule:nonzero;fill:#f3f6f4;fill-opacity:1;" d="M 554.699219 216.695312 C 554.699219 213.460938 557.332031 210.824219 560.566406 210.824219 C 563.808594 210.824219 566.4375 213.460938 566.4375 216.695312 C 566.4375 219.929688 563.808594 222.566406 560.566406 222.566406 C 557.332031 222.566406 554.699219 219.929688 554.699219 216.695312 Z M 431.125 353.195312 C 430.011719 354.304688 428.539062 354.910156 426.96875 354.910156 C 425.40625 354.910156 423.929688 354.304688 422.820312 353.195312 C 421.714844 352.089844 421.105469 350.613281 421.105469 349.046875 C 421.105469 347.476562 421.714844 346 422.820312 344.890625 C 423.929688 343.785156 425.40625 343.179688 426.96875 343.179688 C 428.539062 343.179688 430.011719 343.785156 431.125 344.890625 C 432.234375 346 432.839844 347.476562 432.839844 349.046875 C 432.839844 350.613281 432.234375 352.089844 431.125 353.195312 Z M 516.082031 257.289062 C 515.375 257.289062 514.703125 257.570312 514.203125 258.066406 L 432.691406 339.585938 C 428.433594 337.019531 422.816406 337.550781 419.148438 341.21875 C 414.835938 345.535156 414.835938 352.550781 419.148438 356.871094 C 423.460938 361.179688 430.480469 361.179688 434.796875 356.871094 C 438.464844 353.203125 438.996094 347.582031 436.433594 343.328125 L 517.175781 262.589844 L 560.566406 262.589844 C 562.03125 262.589844 563.222656 261.402344 563.222656 259.941406 L 563.222656 227.425781 C 568.039062 226.230469 571.632812 221.882812 571.632812 216.695312 C 571.632812 210.59375 566.667969 205.632812 560.566406 205.632812 C 554.472656 205.632812 549.503906 210.59375 549.503906 216.695312 C 549.503906 221.882812 553.097656 226.230469 557.921875 227.425781 L 557.921875 257.289062 L 516.082031 257.289062 "/><path style=" stroke:none;fill-rule:nonzero;fill:#f3f6f4;fill-opacity:1;" d="M 648.765625 165.761719 C 652 165.761719 654.628906 168.398438 654.628906 171.632812 C 654.628906 174.867188 652 177.503906 648.765625 177.503906 C 645.523438 177.503906 642.894531 174.867188 642.894531 171.632812 C 642.894531 168.398438 645.523438 165.761719 648.765625 165.761719 Z M 604.5 174.28125 L 638.035156 174.28125 C 639.222656 179.105469 643.578125 182.695312 648.765625 182.695312 C 654.859375 182.695312 659.828125 177.734375 659.828125 171.632812 C 659.828125 165.53125 654.859375 160.570312 648.765625 160.570312 C 643.578125 160.570312 639.222656 164.160156 638.035156 168.984375 L 607.144531 168.984375 L 607.144531 84.125 C 607.144531 83.421875 606.871094 82.746094 606.371094 82.253906 L 474.796875 -49.320312 L 474.796875 -89.65625 L 561.105469 -89.65625 C 562.570312 -89.65625 563.757812 -90.84375 563.757812 -92.304688 L 563.757812 -140.113281 L 558.460938 -140.113281 L 558.460938 -94.957031 L 474.796875 -94.957031 L 474.796875 -140.113281 L 469.503906 -140.113281 L 469.503906 -48.222656 C 469.503906 -47.523438 469.78125 -46.847656 470.28125 -46.351562 L 601.851562 85.21875 L 601.851562 171.632812 C 601.851562 173.097656 603.035156 174.28125 604.5 174.28125 "/><path style=" stroke:none;fill-rule:nonzero;fill:#f3f6f4;fill-opacity:1;" d="M 736.925781 519.527344 C 740.167969 519.527344 742.796875 522.164062 742.796875 525.398438 C 742.796875 528.632812 740.167969 531.269531 736.925781 531.269531 C 733.691406 531.269531 731.054688 528.632812 731.054688 525.398438 C 731.054688 522.164062 733.691406 519.527344 736.925781 519.527344 Z M 695.425781 528.046875 L 726.199219 528.046875 C 727.390625 532.871094 731.738281 536.460938 736.925781 536.460938 C 743.027344 536.460938 747.988281 531.5 747.988281 525.398438 C 747.988281 519.296875 743.027344 514.335938 736.925781 514.335938 C 731.746094 514.335938 727.390625 517.925781 726.199219 522.75 L 692.777344 522.75 C 691.3125 522.75 690.125 523.933594 690.125 525.398438 L 690.125 660.886719 L 695.425781 660.886719 L 695.425781 528.046875 "/><path style=" stroke:none;fill-rule:nonzero;fill:#f3f6f4;fill-opacity:1;" d="M 603.039062 448.152344 C 602.488281 448.144531 602.609375 448.144531 603.039062 448.152344 "/><path style=" stroke:none;fill-rule:nonzero;fill:#f3f6f4;fill-opacity:1;" d="M 731.199219 569.917969 C 731.199219 566.683594 733.835938 564.046875 737.070312 564.046875 C 740.304688 564.046875 742.941406 566.683594 742.941406 569.917969 C 742.941406 573.152344 740.304688 575.785156 737.070312 575.785156 C 733.835938 575.785156 731.199219 573.152344 731.199219 569.917969 Z M 739.578125 660.886719 L 739.699219 580.648438 C 744.527344 579.464844 748.132812 575.109375 748.132812 569.917969 C 748.132812 563.816406 743.171875 558.851562 737.070312 558.851562 C 730.96875 558.851562 726.007812 563.816406 726.007812 569.917969 C 726.007812 575.097656 729.589844 579.449219 734.402344 580.644531 L 734.285156 660.886719 L 739.578125 660.886719 "/><path style=" stroke:none;fill-rule:nonzero;fill:#f3f6f4;fill-opacity:1;" d="M 613.285156 267.363281 C 613.160156 267.496094 613.019531 267.628906 612.890625 267.765625 C 613.035156 267.613281 613.164062 267.484375 613.285156 267.363281 "/><path style=" stroke:none;fill-rule:nonzero;fill:#f3f6f4;fill-opacity:1;" d="M 604.429688 448.160156 C 604.941406 448.160156 605.316406 448.160156 605.597656 448.164062 C 605.273438 448.160156 604.847656 448.160156 604.429688 448.160156 "/><path style=" stroke:none;fill-rule:nonzero;fill:#f3f6f4;fill-opacity:1;" d="M 604.441406 442.964844 C 601.207031 442.953125 598.585938 440.304688 598.597656 437.070312 C 598.617188 433.847656 601.242188 431.226562 604.46875 431.226562 L 604.46875 428.628906 C 604.472656 428.628906 604.472656 428.628906 604.472656 428.628906 L 604.492188 431.226562 C 606.0625 431.230469 607.53125 431.84375 608.632812 432.957031 C 609.742188 434.074219 610.34375 435.550781 610.335938 437.121094 C 610.324219 440.335938 607.691406 442.964844 604.441406 442.964844 Z M 737.070312 387.4375 C 740.304688 387.4375 742.941406 390.066406 742.941406 393.308594 C 742.941406 396.542969 740.304688 399.179688 737.070312 399.179688 C 733.835938 399.179688 731.199219 396.542969 731.199219 393.308594 C 731.199219 390.066406 733.835938 387.4375 737.070312 387.4375 Z M 615.1875 439.785156 L 648.796875 439.921875 C 648.796875 439.921875 648.804688 439.921875 648.804688 439.921875 C 649.503906 439.921875 650.179688 439.640625 650.675781 439.148438 L 693.871094 395.957031 L 726.335938 395.957031 C 727.53125 400.78125 731.882812 404.371094 737.070312 404.371094 C 743.171875 404.371094 748.132812 399.402344 748.132812 393.308594 C 748.132812 387.207031 743.171875 382.246094 737.070312 382.246094 C 731.882812 382.246094 727.53125 385.835938 726.335938 390.65625 L 692.777344 390.65625 C 692.070312 390.65625 691.398438 390.9375 690.898438 391.433594 L 647.714844 434.625 L 615.210938 434.492188 C 614.035156 429.660156 609.699219 426.050781 604.511719 426.03125 C 598.414062 426.007812 593.429688 430.949219 593.402344 437.042969 C 593.378906 443.144531 598.320312 448.132812 604.421875 448.160156 C 609.609375 448.175781 613.980469 444.605469 615.1875 439.785156 "/><path style=" stroke:none;fill-rule:nonzero;fill:#f3f6f4;fill-opacity:1;" d="M 686.730469 128.773438 C 686.730469 125.539062 689.359375 122.902344 692.59375 122.902344 C 695.835938 122.902344 698.464844 125.539062 698.464844 128.773438 C 698.464844 132.007812 695.835938 134.640625 692.59375 134.640625 C 689.359375 134.640625 686.730469 132.007812 686.730469 128.773438 Z M 768.503906 165.980469 C 771.738281 165.980469 774.371094 168.617188 774.371094 171.851562 C 774.371094 175.085938 771.738281 177.722656 768.503906 177.722656 C 765.265625 177.722656 762.632812 175.085938 762.632812 171.851562 C 762.632812 168.617188 765.265625 165.980469 768.503906 165.980469 Z M 692.59375 174.824219 L 757.859375 174.824219 C 759.160156 179.480469 763.433594 182.914062 768.503906 182.914062 C 774.605469 182.914062 779.566406 177.945312 779.566406 171.851562 C 779.566406 165.75 774.605469 160.789062 768.503906 160.789062 C 763.203125 160.789062 758.757812 164.535156 757.6875 169.523438 L 695.25 169.523438 L 695.25 139.503906 C 700.066406 138.316406 703.664062 133.960938 703.664062 128.773438 C 703.664062 122.671875 698.695312 117.707031 692.59375 117.707031 C 686.5 117.707031 681.53125 122.671875 681.53125 128.773438 C 681.53125 133.960938 685.128906 138.316406 689.949219 139.503906 L 689.949219 172.175781 C 689.949219 173.636719 691.136719 174.824219 692.59375 174.824219 "/><path style=" stroke:none;fill-rule:nonzero;fill:#f3f6f4;fill-opacity:1;" d="M 692.15625 266.714844 C 688.921875 266.714844 686.289062 264.085938 686.289062 260.84375 C 686.289062 257.609375 688.921875 254.980469 692.15625 254.980469 C 695.394531 254.980469 698.027344 257.609375 698.027344 260.84375 C 698.027344 264.085938 695.394531 266.714844 692.15625 266.714844 Z M 565.050781 392.402344 C 565.050781 395.636719 562.414062 398.273438 559.179688 398.273438 C 555.945312 398.273438 553.308594 395.636719 553.308594 392.402344 C 553.308594 389.167969 555.945312 386.53125 559.179688 386.53125 C 562.414062 386.53125 565.050781 389.167969 565.050781 392.402344 Z M 692.15625 249.785156 C 686.96875 249.785156 682.621094 253.378906 681.429688 258.195312 L 648.757812 258.195312 C 648.058594 258.195312 647.390625 258.476562 646.886719 258.972656 L 557.308594 348.558594 C 556.8125 349.054688 556.53125 349.730469 556.53125 350.429688 L 556.53125 381.667969 C 551.707031 382.859375 548.113281 387.214844 548.113281 392.402344 C 548.113281 398.503906 553.078125 403.464844 559.179688 403.464844 C 565.28125 403.464844 570.242188 398.503906 570.242188 392.402344 C 570.242188 387.214844 566.652344 382.859375 561.824219 381.667969 L 561.824219 351.527344 L 649.859375 263.496094 L 681.429688 263.496094 C 682.621094 268.316406 686.96875 271.90625 692.15625 271.90625 C 698.257812 271.90625 703.222656 266.945312 703.222656 260.84375 C 703.222656 254.75 698.257812 249.785156 692.15625 249.785156 "/><path style=" stroke:none;fill-rule:nonzero;fill:#f3f6f4;fill-opacity:1;" d="M 118.617188 122.519531 C 121.851562 122.519531 124.488281 125.148438 124.488281 128.382812 C 124.488281 131.625 121.851562 134.253906 118.617188 134.253906 C 115.382812 134.253906 112.746094 131.625 112.746094 128.382812 C 112.746094 125.148438 115.382812 122.519531 118.617188 122.519531 Z M -1.195312 134.253906 C -4.429688 134.253906 -7.066406 131.625 -7.066406 128.382812 C -7.066406 125.148438 -4.429688 122.519531 -1.195312 122.519531 C 2.039062 122.519531 4.675781 125.148438 4.675781 128.382812 C 4.675781 131.625 2.039062 134.253906 -1.195312 134.253906 Z M -1.195312 117.320312 C -7.296875 117.320312 -12.257812 122.289062 -12.257812 128.382812 C -12.257812 134.484375 -7.296875 139.453125 -1.195312 139.453125 C 3.984375 139.453125 8.339844 135.855469 9.535156 131.039062 L 107.882812 131.039062 C 109.078125 135.855469 113.429688 139.453125 118.617188 139.453125 C 124.71875 139.453125 129.679688 134.484375 129.679688 128.382812 C 129.679688 122.289062 124.71875 117.320312 118.617188 117.320312 C 113.429688 117.320312 109.078125 120.917969 107.882812 125.738281 L 9.53125 125.738281 C 8.339844 120.917969 3.984375 117.320312 -1.195312 117.320312 "/><path style=" stroke:none;fill-rule:nonzero;fill:#f3f6f4;fill-opacity:1;" d="M 207.234375 78.753906 C 210.46875 78.753906 213.101562 81.386719 213.101562 84.625 C 213.101562 87.867188 210.46875 90.492188 207.234375 90.492188 C 204 90.492188 201.363281 87.867188 201.363281 84.625 C 201.363281 81.386719 204 78.753906 207.234375 78.753906 Z M 30 45.90625 C 26.765625 45.90625 24.136719 43.277344 24.136719 40.035156 C 24.136719 36.800781 26.765625 34.171875 30 34.171875 C 33.242188 34.171875 35.871094 36.800781 35.871094 40.035156 C 35.871094 43.277344 33.242188 45.90625 30 45.90625 Z M 74.34375 37.394531 L 40.730469 37.394531 C 39.542969 32.570312 35.1875 28.980469 30 28.980469 C 23.90625 28.980469 18.941406 33.941406 18.941406 40.035156 C 18.941406 46.136719 23.90625 51.101562 30 51.101562 C 35.1875 51.101562 39.542969 47.507812 40.730469 42.691406 L 73.242188 42.691406 L 117.050781 86.496094 C 117.550781 86.996094 118.222656 87.277344 118.921875 87.277344 L 196.5 87.277344 C 197.695312 92.09375 202.046875 95.6875 207.234375 95.6875 C 213.335938 95.6875 218.296875 90.726562 218.296875 84.625 C 218.296875 78.527344 213.335938 73.566406 207.234375 73.566406 C 202.046875 73.566406 197.695312 77.152344 196.5 81.976562 L 120.023438 81.976562 L 76.214844 38.164062 C 75.714844 37.671875 75.042969 37.394531 74.34375 37.394531 "/><path style=" stroke:none;fill-rule:nonzero;fill:#f3f6f4;fill-opacity:1;" d="M 30.621094 576.199219 C 27.382812 576.199219 24.75 573.566406 24.75 570.328125 C 24.75 567.09375 27.382812 564.460938 30.621094 564.460938 C 33.855469 564.460938 36.488281 567.09375 36.488281 570.328125 C 36.488281 573.566406 33.855469 576.199219 30.621094 576.199219 Z M 77.421875 660.886719 L 77.421875 570.328125 C 77.421875 568.867188 76.230469 567.683594 74.773438 567.683594 L 41.351562 567.683594 C 40.15625 562.859375 35.808594 559.265625 30.621094 559.265625 C 24.519531 559.265625 19.554688 564.230469 19.554688 570.328125 C 19.554688 576.429688 24.519531 581.394531 30.621094 581.394531 C 35.808594 581.394531 40.15625 577.800781 41.351562 572.976562 L 72.128906 572.976562 L 72.128906 660.886719 L 77.421875 660.886719 "/><path style=" stroke:none;fill-rule:nonzero;fill:#f3f6f4;fill-opacity:1;" d="M 30.621094 531.632812 C 27.382812 531.632812 24.75 529.003906 24.75 525.769531 C 24.75 522.53125 27.382812 519.898438 30.621094 519.898438 C 33.855469 519.898438 36.488281 522.53125 36.488281 525.769531 C 36.488281 529.003906 33.855469 531.632812 30.621094 531.632812 Z M 288.734375 437.457031 C 288.734375 434.222656 291.363281 431.589844 294.597656 431.589844 C 297.839844 431.589844 300.46875 434.222656 300.46875 437.457031 C 300.46875 440.691406 297.839844 443.328125 294.597656 443.328125 C 291.363281 443.328125 288.734375 440.691406 288.734375 437.457031 Z M 121.261719 616.25 L 206.765625 616.25 C 207.464844 616.25 208.140625 615.972656 208.636719 615.472656 L 296.476562 527.640625 C 296.96875 527.144531 297.253906 526.46875 297.253906 525.769531 L 297.253906 448.191406 C 302.070312 446.996094 305.664062 442.644531 305.664062 437.457031 C 305.664062 431.355469 300.699219 426.394531 294.597656 426.394531 C 288.503906 426.394531 283.535156 431.355469 283.535156 437.457031 C 283.535156 442.644531 287.132812 446.996094 291.953125 448.191406 L 291.953125 524.667969 L 205.667969 610.957031 L 165.726562 610.957031 L 165.726562 569.015625 C 165.726562 568.316406 165.445312 567.640625 164.949219 567.144531 L 121.695312 523.890625 C 121.199219 523.394531 120.523438 523.121094 119.824219 523.121094 L 41.351562 523.121094 C 40.15625 518.296875 35.808594 514.703125 30.621094 514.703125 C 24.519531 514.703125 19.554688 519.667969 19.554688 525.769531 C 19.554688 531.863281 24.519531 536.832031 30.621094 536.832031 C 35.808594 536.832031 40.15625 533.234375 41.351562 528.414062 L 118.730469 528.414062 L 160.425781 570.109375 L 160.425781 610.957031 L 118.617188 610.957031 C 117.914062 610.957031 117.238281 611.238281 116.746094 611.730469 C 116.25 612.226562 115.96875 612.902344 115.96875 613.601562 L 115.976562 660.886719 L 121.269531 660.886719 L 121.261719 616.25 "/><path style=" stroke:none;fill-rule:nonzero;fill:#f3f6f4;fill-opacity:1;" d="M 252.160156 487.101562 C 248.921875 487.101562 246.289062 484.464844 246.289062 481.230469 C 246.289062 477.996094 248.921875 475.363281 252.160156 475.363281 C 255.394531 475.363281 258.027344 477.996094 258.027344 481.230469 C 258.027344 484.464844 255.394531 487.101562 252.160156 487.101562 Z M 30.621094 399.179688 C 27.382812 399.179688 24.75 396.542969 24.75 393.308594 C 24.75 390.066406 27.382812 387.4375 30.621094 387.4375 C 33.855469 387.4375 36.488281 390.066406 36.488281 393.308594 C 36.488281 396.542969 33.855469 399.179688 30.621094 399.179688 Z M 252.160156 470.167969 C 246.96875 470.167969 242.621094 473.757812 241.433594 478.578125 L 162.351562 478.578125 L 75.207031 391.433594 C 74.707031 390.9375 74.035156 390.65625 73.335938 390.65625 L 41.351562 390.65625 C 40.15625 385.835938 35.808594 382.246094 30.621094 382.246094 C 24.519531 382.246094 19.554688 387.207031 19.554688 393.308594 C 19.554688 399.402344 24.519531 404.371094 30.621094 404.371094 C 35.808594 404.371094 40.15625 400.78125 41.351562 395.957031 L 72.234375 395.957031 L 159.386719 483.101562 C 159.878906 483.597656 160.554688 483.878906 161.257812 483.878906 L 241.425781 483.878906 C 242.621094 488.703125 246.96875 492.296875 252.160156 492.296875 C 258.257812 492.296875 263.222656 487.328125 263.222656 481.230469 C 263.222656 475.128906 258.257812 470.167969 252.160156 470.167969 "/><path style=" stroke:none;fill-rule:nonzero;fill:#f3f6f4;fill-opacity:1;" d="M 249.699219 431.332031 C 252.933594 431.332031 255.570312 433.964844 255.570312 437.203125 C 255.570312 440.4375 252.933594 443.070312 249.699219 443.070312 C 246.464844 443.070312 243.828125 440.4375 243.828125 437.203125 C 243.828125 433.964844 246.464844 431.332031 249.699219 431.332031 Z M 27.742188 355.015625 C 24.503906 355.015625 21.871094 352.390625 21.871094 349.148438 C 21.871094 345.914062 24.503906 343.277344 27.742188 343.277344 C 30.976562 343.277344 33.609375 345.914062 33.609375 349.148438 C 33.609375 352.390625 30.976562 355.015625 27.742188 355.015625 Z M 75.023438 346.5 L 38.464844 346.5 C 37.277344 341.675781 32.921875 338.082031 27.742188 338.082031 C 21.640625 338.082031 16.675781 343.050781 16.675781 349.148438 C 16.675781 355.25 21.640625 360.210938 27.742188 360.210938 C 32.921875 360.210938 37.277344 356.621094 38.464844 351.792969 L 73.929688 351.792969 L 161.207031 439.074219 C 161.703125 439.574219 162.378906 439.847656 163.078125 439.847656 L 238.972656 439.847656 C 240.160156 444.671875 244.515625 448.265625 249.699219 448.265625 C 255.800781 448.265625 260.761719 443.300781 260.761719 437.203125 C 260.761719 431.101562 255.800781 426.136719 249.699219 426.136719 C 244.515625 426.136719 240.160156 429.730469 238.972656 434.554688 L 164.171875 434.554688 L 76.894531 347.277344 C 76.402344 346.78125 75.726562 346.5 75.023438 346.5 "/><path style=" stroke:none;fill-rule:nonzero;fill:#f3f6f4;fill-opacity:1;" d="M 30.621094 431.332031 C 33.855469 431.332031 36.488281 433.964844 36.488281 437.203125 C 36.488281 440.4375 33.855469 443.070312 30.621094 443.070312 C 27.382812 443.070312 24.75 440.4375 24.75 437.203125 C 24.75 433.964844 27.382812 431.332031 30.621094 431.332031 Z M 74.773438 431.332031 C 78.007812 431.332031 80.644531 433.964844 80.644531 437.203125 C 80.644531 440.4375 78.007812 443.070312 74.773438 443.070312 C 71.539062 443.070312 68.90625 440.4375 68.90625 437.203125 C 68.90625 433.964844 71.539062 431.332031 74.773438 431.332031 Z M 30.621094 448.265625 C 35.808594 448.265625 40.15625 444.671875 41.351562 439.847656 L 64.042969 439.847656 C 65.238281 444.671875 69.585938 448.265625 74.773438 448.265625 C 80.871094 448.265625 85.839844 443.300781 85.839844 437.203125 C 85.839844 431.101562 80.871094 426.136719 74.773438 426.136719 C 69.585938 426.136719 65.230469 429.730469 64.042969 434.554688 L 41.351562 434.554688 C 40.15625 429.730469 35.808594 426.136719 30.621094 426.136719 C 24.519531 426.136719 19.554688 431.101562 19.554688 437.203125 C 19.554688 443.300781 24.519531 448.265625 30.621094 448.265625 "/><path style=" stroke:none;fill-rule:nonzero;fill:#f3f6f4;fill-opacity:1;" d="M -5.402344 254.609375 C -2.164062 254.609375 0.46875 257.246094 0.46875 260.480469 C 0.46875 263.714844 -2.164062 266.351562 -5.402344 266.351562 C -8.636719 266.351562 -11.269531 263.714844 -11.269531 260.480469 C -11.269531 257.246094 -8.636719 254.609375 -5.402344 254.609375 Z M 33.453125 254.609375 C 36.695312 254.609375 39.324219 257.246094 39.324219 260.480469 C 39.324219 263.714844 36.695312 266.351562 33.453125 266.351562 C 30.21875 266.351562 27.585938 263.714844 27.585938 260.480469 C 27.585938 257.246094 30.21875 254.609375 33.453125 254.609375 Z M -5.402344 271.542969 C -0.214844 271.542969 4.136719 267.953125 5.332031 263.128906 L 22.726562 263.128906 C 23.917969 267.953125 28.273438 271.542969 33.453125 271.542969 C 39.554688 271.542969 44.519531 266.582031 44.519531 260.480469 C 44.519531 254.378906 39.554688 249.417969 33.453125 249.417969 C 28.273438 249.417969 23.917969 253.007812 22.726562 257.832031 L 5.332031 257.832031 C 4.136719 253.007812 -0.214844 249.417969 -5.402344 249.417969 C -11.503906 249.417969 -16.464844 254.378906 -16.464844 260.480469 C -16.464844 266.582031 -11.503906 271.542969 -5.402344 271.542969 "/><path style=" stroke:none;fill-rule:nonzero;fill:#f3f6f4;fill-opacity:1;" d="M -0.449219 77.996094 C 2.785156 77.996094 5.417969 80.632812 5.417969 83.867188 C 5.417969 87.109375 2.785156 89.738281 -0.449219 89.738281 C -3.6875 89.738281 -6.320312 87.109375 -6.320312 83.867188 C -6.320312 80.632812 -3.6875 77.996094 -0.449219 77.996094 Z M 74.15625 77.996094 C 77.390625 77.996094 80.023438 80.632812 80.023438 83.867188 C 80.023438 87.109375 77.390625 89.738281 74.15625 89.738281 C 70.917969 89.738281 68.285156 87.109375 68.285156 83.867188 C 68.285156 80.632812 70.917969 77.996094 74.15625 77.996094 Z M -0.449219 94.929688 C 4.738281 94.929688 9.085938 91.339844 10.28125 86.519531 L 63.429688 86.519531 C 64.617188 91.339844 68.96875 94.929688 74.15625 94.929688 C 80.257812 94.929688 85.21875 89.96875 85.21875 83.867188 C 85.21875 77.769531 80.257812 72.800781 74.15625 72.800781 C 68.96875 72.800781 64.617188 76.394531 63.429688 81.21875 L 10.28125 81.21875 C 9.09375 76.394531 4.738281 72.800781 -0.449219 72.800781 C -6.546875 72.800781 -11.515625 77.769531 -11.515625 83.867188 C -11.515625 89.96875 -6.546875 94.929688 -0.449219 94.929688 "/><path style=" stroke:none;fill-rule:nonzero;fill:#f3f6f4;fill-opacity:1;" d="M 200.894531 260.480469 C 200.894531 257.246094 203.527344 254.609375 206.765625 254.609375 C 210 254.609375 212.632812 257.246094 212.632812 260.480469 C 212.632812 263.714844 210 266.351562 206.765625 266.351562 C 203.527344 266.351562 200.894531 263.714844 200.894531 260.480469 Z M 118.617188 355.015625 C 115.382812 355.015625 112.746094 352.382812 112.746094 349.148438 C 112.746094 345.914062 115.382812 343.277344 118.617188 343.277344 C 121.851562 343.277344 124.488281 345.914062 124.488281 349.148438 C 124.488281 352.382812 121.851562 355.015625 118.617188 355.015625 Z M 161.152344 346.5 L 129.347656 346.5 C 128.152344 341.675781 123.804688 338.082031 118.617188 338.082031 C 112.515625 338.082031 107.550781 343.046875 107.550781 349.148438 C 107.550781 355.25 112.515625 360.210938 118.617188 360.210938 C 123.804688 360.210938 128.152344 356.621094 129.347656 351.792969 L 162.253906 351.792969 C 162.953125 351.792969 163.621094 351.519531 164.125 351.019531 L 208.636719 306.507812 C 209.128906 306.007812 209.410156 305.335938 209.410156 304.636719 L 209.410156 271.214844 C 214.234375 270.019531 217.828125 265.667969 217.828125 260.480469 C 217.828125 254.378906 212.867188 249.417969 206.765625 249.417969 C 200.664062 249.417969 195.699219 254.378906 195.699219 260.480469 C 195.699219 265.667969 199.292969 270.019531 204.117188 271.214844 L 204.117188 303.535156 L 161.152344 346.5 "/><path style=" stroke:none;fill-rule:nonzero;fill:#f3f6f4;fill-opacity:1;" d="M 30.621094 475.363281 C 33.855469 475.363281 36.488281 477.996094 36.488281 481.230469 C 36.488281 484.464844 33.855469 487.101562 30.621094 487.101562 C 27.382812 487.101562 24.75 484.464844 24.75 481.230469 C 24.75 477.996094 27.382812 475.363281 30.621094 475.363281 Z M 251.382812 518.402344 C 254.625 518.402344 257.253906 521.039062 257.253906 524.273438 C 257.253906 527.507812 254.625 530.140625 251.382812 530.140625 C 248.148438 530.140625 245.519531 527.507812 245.519531 524.273438 C 245.519531 521.039062 248.148438 518.402344 251.382812 518.402344 Z M 30.621094 492.296875 C 35.808594 492.296875 40.15625 488.703125 41.351562 483.878906 L 117.828125 483.878906 L 160.09375 526.144531 C 160.59375 526.636719 161.261719 526.917969 161.964844 526.917969 L 240.65625 526.917969 C 241.84375 531.746094 246.199219 535.335938 251.382812 535.335938 C 257.484375 535.335938 262.445312 530.375 262.445312 524.273438 C 262.445312 518.171875 257.484375 513.207031 251.382812 513.207031 C 246.199219 513.207031 241.84375 516.800781 240.65625 521.625 L 163.066406 521.625 L 120.800781 479.359375 C 120.300781 478.859375 119.628906 478.578125 118.921875 478.578125 L 41.351562 478.578125 C 40.15625 473.757812 35.808594 470.167969 30.621094 470.167969 C 24.519531 470.167969 19.554688 475.128906 19.554688 481.230469 C 19.554688 487.328125 24.519531 492.296875 30.621094 492.296875 "/><path style=" stroke:none;fill-rule:nonzero;fill:#f3f6f4;fill-opacity:1;" d="M 472.152344 45.949219 C 468.917969 45.949219 466.28125 43.316406 466.28125 40.082031 C 466.28125 36.84375 468.917969 34.210938 472.152344 34.210938 C 475.386719 34.210938 478.019531 36.84375 478.019531 40.082031 C 478.019531 43.316406 475.386719 45.949219 472.152344 45.949219 Z M 383.839844 45.949219 C 380.605469 45.949219 377.976562 43.316406 377.976562 40.082031 C 377.976562 36.84375 380.605469 34.210938 383.839844 34.210938 C 387.082031 34.210938 389.710938 36.84375 389.710938 40.082031 C 389.710938 43.316406 387.082031 45.949219 383.839844 45.949219 Z M 472.152344 29.015625 C 466.964844 29.015625 462.613281 32.609375 461.417969 37.433594 L 394.574219 37.433594 C 393.382812 32.609375 389.027344 29.015625 383.839844 29.015625 C 377.746094 29.015625 372.785156 33.980469 372.785156 40.082031 C 372.785156 46.183594 377.746094 51.144531 383.839844 51.144531 C 389.027344 51.144531 393.382812 47.550781 394.574219 42.726562 L 461.417969 42.726562 C 462.613281 47.550781 466.964844 51.144531 472.152344 51.144531 C 478.253906 51.144531 483.214844 46.183594 483.214844 40.082031 C 483.214844 33.980469 478.253906 29.015625 472.152344 29.015625 "/><path style=" stroke:none;fill-rule:nonzero;fill:#f3f6f4;fill-opacity:1;" d="M 742.234375 128.023438 C 742.234375 131.257812 739.597656 133.890625 736.363281 133.890625 C 733.128906 133.890625 730.492188 131.257812 730.492188 128.023438 C 730.492188 124.785156 733.128906 122.152344 736.363281 122.152344 C 739.597656 122.152344 742.234375 124.785156 742.234375 128.023438 Z M 648.621094 89.738281 C 645.386719 89.738281 642.753906 87.109375 642.753906 83.867188 C 642.753906 80.632812 645.386719 77.996094 648.621094 77.996094 C 651.855469 77.996094 654.492188 80.632812 654.492188 83.867188 C 654.492188 87.109375 651.855469 89.738281 648.621094 89.738281 Z M 733.714844 117.289062 C 728.890625 118.484375 725.300781 122.832031 725.300781 128.023438 C 725.300781 134.121094 730.261719 139.085938 736.363281 139.085938 C 742.464844 139.085938 747.425781 134.121094 747.425781 128.023438 C 747.425781 122.832031 743.835938 118.484375 739.011719 117.289062 L 739.011719 83.867188 C 739.011719 82.402344 737.828125 81.21875 736.363281 81.21875 L 659.355469 81.21875 C 658.160156 76.394531 653.808594 72.800781 648.621094 72.800781 C 642.519531 72.800781 637.558594 77.769531 637.558594 83.867188 C 637.558594 89.96875 642.519531 94.929688 648.621094 94.929688 C 653.808594 94.929688 658.160156 91.339844 659.355469 86.511719 L 733.714844 86.511719 L 733.714844 117.289062 "/><path style=" stroke:none;fill-rule:nonzero;fill:#f3f6f4;fill-opacity:1;" d="M 74.773438 -10.308594 C 78.007812 -10.308594 80.644531 -7.671875 80.644531 -4.4375 C 80.644531 -1.203125 78.007812 1.433594 74.773438 1.433594 C 71.539062 1.433594 68.90625 -1.203125 68.90625 -4.4375 C 68.90625 -7.671875 71.539062 -10.308594 74.773438 -10.308594 Z M 64.042969 -1.789062 C 65.230469 3.035156 69.585938 6.625 74.773438 6.625 C 80.871094 6.625 85.839844 1.65625 85.839844 -4.4375 C 85.839844 -10.539062 80.871094 -15.5 74.773438 -15.5 C 69.585938 -15.5 65.238281 -11.910156 64.042969 -7.089844 L -17.320312 -7.089844 L -17.320312 -1.789062 L 64.042969 -1.789062 "/><path style=" stroke:none;fill-rule:nonzero;fill:#f3f6f4;fill-opacity:1;" d="M 422.125 437.457031 C 422.125 434.222656 424.761719 431.589844 427.996094 431.589844 C 431.230469 431.589844 433.867188 434.222656 433.867188 437.457031 C 433.867188 440.691406 431.230469 443.328125 427.996094 443.328125 C 424.761719 443.328125 422.125 440.691406 422.125 437.457031 Z M 377.976562 437.203125 C 377.976562 433.964844 380.605469 431.332031 383.839844 431.332031 C 387.082031 431.332031 389.710938 433.964844 389.710938 437.203125 C 389.710938 440.4375 387.082031 443.070312 383.839844 443.070312 C 380.605469 443.070312 377.976562 440.4375 377.976562 437.203125 Z M 474.796875 660.886719 L 474.796875 569.917969 C 474.796875 569.214844 474.515625 568.539062 474.023438 568.046875 L 430.53125 524.554688 L 430.53125 448.214844 C 435.410156 447.070312 439.058594 442.683594 439.058594 437.457031 C 439.058594 431.355469 434.097656 426.394531 427.996094 426.394531 C 421.902344 426.394531 416.933594 431.355469 416.933594 437.457031 C 416.933594 442.601562 420.46875 446.925781 425.238281 448.160156 L 425.238281 478.964844 L 386.496094 478.964844 L 386.496094 447.933594 C 391.3125 446.738281 394.90625 442.390625 394.90625 437.203125 C 394.90625 431.101562 389.941406 426.136719 383.839844 426.136719 C 377.746094 426.136719 372.785156 431.101562 372.785156 437.203125 C 372.785156 442.390625 376.375 446.738281 381.195312 447.933594 L 381.195312 481.613281 C 381.195312 483.078125 382.382812 484.261719 383.839844 484.261719 L 425.238281 484.261719 L 425.238281 525.65625 C 425.238281 526.355469 425.519531 527.027344 426.011719 527.527344 L 469.503906 571.011719 L 469.503906 660.886719 L 474.796875 660.886719 "/><path style=" stroke:none;fill-rule:nonzero;fill:#f3f6f4;fill-opacity:1;" d="M 560.316406 1.433594 C 557.078125 1.433594 554.449219 -1.203125 554.449219 -4.4375 C 554.449219 -7.671875 557.078125 -10.308594 560.316406 -10.308594 C 563.554688 -10.308594 566.179688 -7.671875 566.179688 -4.4375 C 566.179688 -1.203125 563.554688 1.433594 560.316406 1.433594 Z M 598.671875 -48.59375 C 598.671875 -51.828125 601.300781 -54.460938 604.542969 -54.460938 C 607.777344 -54.460938 610.410156 -51.828125 610.410156 -48.59375 C 610.410156 -45.355469 607.777344 -42.722656 604.542969 -42.722656 C 601.300781 -42.722656 598.671875 -45.355469 598.671875 -48.59375 Z M 648.765625 33.847656 C 652 33.847656 654.628906 36.476562 654.628906 39.71875 C 654.628906 42.953125 652 45.582031 648.765625 45.582031 C 645.523438 45.582031 642.894531 42.953125 642.894531 39.71875 C 642.894531 36.476562 645.523438 33.847656 648.765625 33.847656 Z M 604.542969 42.363281 L 638.035156 42.363281 C 639.222656 47.183594 643.578125 50.773438 648.765625 50.773438 C 654.859375 50.773438 659.828125 45.8125 659.828125 39.71875 C 659.828125 33.617188 654.859375 28.652344 648.765625 28.652344 C 643.578125 28.652344 639.222656 32.246094 638.035156 37.0625 L 607.1875 37.0625 L 607.1875 -37.859375 C 612.015625 -39.050781 615.605469 -43.40625 615.605469 -48.59375 C 615.605469 -54.695312 610.636719 -59.65625 604.542969 -59.65625 C 598.441406 -59.65625 593.476562 -54.695312 593.476562 -48.59375 C 593.476562 -43.40625 597.070312 -39.050781 601.886719 -37.859375 L 601.886719 -7.089844 L 571.042969 -7.089844 C 569.855469 -11.910156 565.5 -15.5 560.316406 -15.5 C 554.214844 -15.5 549.246094 -10.539062 549.246094 -4.4375 C 549.246094 1.65625 554.214844 6.625 560.316406 6.625 C 565.5 6.625 569.855469 3.035156 571.042969 -1.789062 L 601.886719 -1.789062 L 601.886719 39.71875 C 601.886719 41.175781 603.078125 42.363281 604.542969 42.363281 "/><path style=" stroke:none;fill-rule:nonzero;fill:#f3f6f4;fill-opacity:1;" d="M 383.839844 -0.40625 C 380.605469 -0.40625 377.976562 -3.042969 377.976562 -6.277344 C 377.976562 -9.511719 380.605469 -12.148438 383.839844 -12.148438 C 387.082031 -12.148438 389.710938 -9.511719 389.710938 -6.277344 C 389.710938 -3.042969 387.082031 -0.40625 383.839844 -0.40625 Z M 606.054688 213.648438 L 562.582031 171.417969 L 562.582031 82.800781 C 562.582031 82.109375 562.308594 81.4375 561.820312 80.945312 L 474.035156 -8.136719 C 473.539062 -8.644531 472.859375 -8.925781 472.152344 -8.925781 L 394.574219 -8.925781 C 393.382812 -13.75 389.027344 -17.339844 383.839844 -17.339844 C 377.746094 -17.339844 372.785156 -12.378906 372.785156 -6.277344 C 372.785156 -0.175781 377.746094 4.785156 383.839844 4.785156 C 389.027344 4.785156 393.382812 1.195312 394.574219 -3.628906 L 471.042969 -3.628906 L 557.28125 83.890625 L 557.28125 172.539062 C 557.28125 173.257812 557.578125 173.941406 558.089844 174.441406 L 603.140625 218.191406 C 603.628906 218.671875 604.292969 218.941406 604.980469 218.941406 L 783.679688 218.941406 L 783.679688 213.648438 L 606.054688 213.648438 "/><path style=" stroke:none;fill-rule:nonzero;fill:#f3f6f4;fill-opacity:1;" d="M 653.648438 -5.34375 C 653.648438 -2.109375 651.011719 0.523438 647.777344 0.523438 C 644.542969 0.523438 641.90625 -2.109375 641.90625 -5.34375 C 641.90625 -8.582031 644.542969 -11.214844 647.777344 -11.214844 C 651.011719 -11.214844 653.648438 -8.582031 653.648438 -5.34375 Z M 690.125 -140.113281 L 690.125 -136.722656 L 645.929688 -93.800781 C 645.417969 -93.296875 645.128906 -92.617188 645.128906 -91.898438 L 645.128906 -16.078125 C 640.304688 -14.882812 636.714844 -10.53125 636.714844 -5.34375 C 636.714844 0.757812 641.675781 5.71875 647.777344 5.71875 C 653.878906 5.71875 658.839844 0.757812 658.839844 -5.34375 C 658.839844 -10.53125 655.25 -14.882812 650.425781 -16.078125 L 650.425781 -90.777344 L 694.617188 -133.699219 C 695.128906 -134.199219 695.425781 -134.882812 695.425781 -135.601562 L 695.425781 -140.113281 L 690.125 -140.113281 "/><path style=" stroke:none;fill-rule:nonzero;fill:#f3f6f4;fill-opacity:1;" d="M 118.617188 210.425781 C 121.851562 210.425781 124.488281 213.054688 124.488281 216.292969 C 124.488281 219.53125 121.851562 222.164062 118.617188 222.164062 C 115.382812 222.164062 112.746094 219.53125 112.746094 216.292969 C 112.746094 213.054688 115.382812 210.425781 118.617188 210.425781 Z M 207.234375 210.425781 C 210.46875 210.425781 213.101562 213.054688 213.101562 216.292969 C 213.101562 219.53125 210.46875 222.164062 207.234375 222.164062 C 204 222.164062 201.363281 219.53125 201.363281 216.292969 C 201.363281 213.054688 204 210.425781 207.234375 210.425781 Z M 118.617188 227.359375 C 123.804688 227.359375 128.152344 223.765625 129.347656 218.941406 L 196.5 218.941406 C 197.695312 223.765625 202.046875 227.359375 207.234375 227.359375 C 213.335938 227.359375 218.296875 222.390625 218.296875 216.292969 C 218.296875 210.191406 213.335938 205.230469 207.234375 205.230469 C 202.046875 205.230469 197.695312 208.824219 196.5 213.648438 L 129.347656 213.648438 C 128.152344 208.824219 123.804688 205.230469 118.617188 205.230469 C 112.515625 205.230469 107.550781 210.191406 107.550781 216.292969 C 107.550781 222.390625 112.515625 227.359375 118.617188 227.359375 "/><path style=" stroke:none;fill-rule:nonzero;fill:#f3f6f4;fill-opacity:1;" d="M 339.1875 639.492188 C 342.421875 639.492188 345.054688 642.121094 345.054688 645.359375 C 345.054688 648.597656 342.421875 651.230469 339.1875 651.230469 C 335.949219 651.230469 333.316406 648.597656 333.316406 645.359375 C 333.316406 642.121094 335.949219 639.492188 339.1875 639.492188 Z M 294.597656 574.515625 C 291.363281 574.515625 288.734375 571.882812 288.734375 568.648438 C 288.734375 565.410156 291.363281 562.777344 294.597656 562.777344 C 297.839844 562.777344 300.46875 565.410156 300.46875 568.648438 C 300.46875 571.882812 297.839844 574.515625 294.597656 574.515625 Z M 328.121094 645.359375 C 328.121094 651.457031 333.085938 656.425781 339.1875 656.425781 C 345.285156 656.425781 350.25 651.457031 350.25 645.359375 C 350.25 640.171875 346.65625 635.816406 341.832031 634.628906 L 341.832031 568.648438 C 341.832031 567.183594 340.648438 566 339.1875 566 L 305.332031 566 C 304.136719 561.175781 299.785156 557.582031 294.597656 557.582031 C 288.503906 557.582031 283.535156 562.546875 283.535156 568.648438 C 283.535156 574.75 288.503906 579.710938 294.597656 579.710938 C 299.785156 579.710938 304.140625 576.117188 305.332031 571.292969 L 336.539062 571.292969 L 336.539062 634.628906 C 331.714844 635.824219 328.121094 640.171875 328.121094 645.359375 "/><path style=" stroke:none;fill-rule:nonzero;fill:#f3f6f4;fill-opacity:1;" d="M 118.921875 34.53125 C 122.164062 34.53125 124.792969 37.164062 124.792969 40.398438 C 124.792969 43.636719 122.164062 46.269531 118.921875 46.269531 C 115.6875 46.269531 113.058594 43.636719 113.058594 40.398438 C 113.058594 37.164062 115.6875 34.53125 118.921875 34.53125 Z M 295.539062 78.753906 C 298.773438 78.753906 301.40625 81.386719 301.40625 84.625 C 301.40625 87.867188 298.773438 90.492188 295.539062 90.492188 C 292.300781 90.492188 289.667969 87.867188 289.667969 84.625 C 289.667969 81.386719 292.300781 78.753906 295.539062 78.753906 Z M 118.921875 51.464844 C 124.109375 51.464844 128.464844 47.871094 129.65625 43.054688 L 206.132812 43.054688 L 249.511719 86.496094 C 250.003906 86.996094 250.679688 87.277344 251.382812 87.277344 L 284.8125 87.277344 C 286 92.09375 290.351562 95.6875 295.539062 95.6875 C 301.640625 95.6875 306.601562 90.726562 306.601562 84.625 C 306.601562 78.527344 301.640625 73.566406 295.539062 73.566406 C 290.351562 73.566406 286 77.152344 284.8125 81.976562 L 252.484375 81.976562 L 209.105469 38.527344 C 208.609375 38.035156 207.933594 37.753906 207.234375 37.753906 L 129.65625 37.753906 C 128.464844 32.929688 124.109375 29.335938 118.921875 29.335938 C 112.828125 29.335938 107.867188 34.296875 107.867188 40.398438 C 107.867188 46.5 112.828125 51.464844 118.921875 51.464844 "/><path style=" stroke:none;fill-rule:nonzero;fill:#f3f6f4;fill-opacity:1;" d="M 244.136719 47.496094 C 244.40625 47.765625 244.347656 47.714844 244.136719 47.496094 "/><path style=" stroke:none;fill-rule:nonzero;fill:#f3f6f4;fill-opacity:1;" d="M 288.285156 253.996094 C 288.351562 253.933594 288.421875 253.867188 288.492188 253.796875 C 288.417969 253.871094 288.351562 253.933594 288.285156 253.996094 "/><path style=" stroke:none;fill-rule:nonzero;fill:#f3f6f4;fill-opacity:1;" d="M 288.691406 253.597656 C 288.621094 253.664062 288.558594 253.722656 288.492188 253.796875 C 288.554688 253.730469 288.621094 253.664062 288.691406 253.597656 "/><path style=" stroke:none;fill-rule:nonzero;fill:#f3f6f4;fill-opacity:1;" d="M 295.539062 1.796875 C 292.300781 1.796875 289.667969 -0.832031 289.667969 -4.066406 C 289.667969 -7.308594 292.300781 -9.9375 295.539062 -9.9375 C 298.773438 -9.9375 301.40625 -7.308594 301.40625 -4.066406 C 301.40625 -0.832031 298.773438 1.796875 295.539062 1.796875 Z M 300.460938 265.769531 C 299.355469 266.882812 297.878906 267.488281 296.3125 267.488281 C 294.742188 267.488281 293.273438 266.882812 292.164062 265.769531 C 291.050781 264.660156 290.445312 263.191406 290.445312 261.621094 C 290.445312 260.054688 291.050781 258.578125 292.164062 257.472656 C 293.273438 256.363281 294.742188 255.75 296.3125 255.75 C 297.878906 255.75 299.355469 256.363281 300.460938 257.472656 C 301.570312 258.578125 302.183594 260.054688 302.183594 261.621094 C 302.183594 263.191406 301.570312 264.660156 300.460938 265.769531 Z M 163.078125 134.089844 C 159.84375 134.089844 157.207031 131.457031 157.207031 128.222656 C 157.207031 124.988281 159.84375 122.351562 163.078125 122.351562 C 166.3125 122.351562 168.949219 124.988281 168.949219 128.222656 C 168.949219 131.457031 166.3125 134.089844 163.078125 134.089844 Z M 295.539062 45.949219 C 292.300781 45.949219 289.667969 43.316406 289.667969 40.082031 C 289.667969 36.84375 292.300781 34.210938 295.539062 34.210938 C 298.773438 34.210938 301.40625 36.84375 301.40625 40.082031 C 301.40625 43.316406 298.773438 45.949219 295.539062 45.949219 Z M 306.269531 37.433594 C 305.074219 32.609375 300.726562 29.015625 295.539062 29.015625 C 289.4375 29.015625 284.472656 33.980469 284.472656 40.082031 C 284.472656 46.183594 289.4375 51.144531 295.539062 51.144531 C 300.726562 51.144531 305.074219 47.550781 306.269531 42.726562 L 338.589844 42.726562 L 338.589844 169.894531 L 296.632812 169.894531 L 253.089844 126.351562 C 252.597656 125.851562 251.921875 125.574219 251.21875 125.574219 L 173.808594 125.574219 C 172.613281 120.75 168.265625 117.15625 163.078125 117.15625 C 156.976562 117.15625 152.015625 122.121094 152.015625 128.222656 C 152.015625 134.324219 156.976562 139.285156 163.078125 139.285156 C 168.265625 139.285156 172.613281 135.695312 173.808594 130.867188 L 250.125 130.867188 L 293.667969 174.410156 C 294.160156 174.910156 294.835938 175.1875 295.539062 175.1875 L 338.589844 175.1875 L 338.589844 215.59375 L 302.027344 252.164062 C 297.769531 249.59375 292.15625 250.128906 288.492188 253.796875 C 284.171875 258.109375 284.171875 265.128906 288.492188 269.441406 C 292.804688 273.761719 299.824219 273.761719 304.136719 269.441406 C 307.800781 265.773438 308.339844 260.160156 305.769531 255.90625 L 343.109375 218.566406 C 343.609375 218.070312 343.886719 217.394531 343.886719 216.695312 L 343.886719 -4.066406 C 343.886719 -5.53125 342.703125 -6.722656 341.238281 -6.722656 L 306.269531 -6.722656 C 305.074219 -11.539062 300.726562 -15.132812 295.539062 -15.132812 C 289.4375 -15.132812 284.472656 -10.167969 284.472656 -4.066406 C 284.472656 2.027344 289.4375 6.988281 295.539062 6.988281 C 300.726562 6.988281 305.074219 3.402344 306.269531 -1.421875 L 338.589844 -1.421875 L 338.589844 37.433594 L 306.269531 37.433594 "/><path style=" stroke:none;fill-rule:nonzero;fill:#f3f6f4;fill-opacity:1;" d="M 255.46875 216.292969 C 255.46875 219.53125 252.835938 222.164062 249.597656 222.164062 C 246.363281 222.164062 243.730469 219.53125 243.730469 216.292969 C 243.730469 213.054688 246.363281 210.425781 249.597656 210.425781 C 252.835938 210.425781 255.46875 213.054688 255.46875 216.292969 Z M 74.628906 178.546875 C 71.394531 178.546875 68.761719 175.914062 68.761719 172.675781 C 68.761719 169.441406 71.394531 166.808594 74.628906 166.808594 C 77.867188 166.808594 80.5 169.441406 80.5 172.675781 C 80.5 175.914062 77.867188 178.546875 74.628906 178.546875 Z M 249.699219 170.03125 L 85.363281 170.03125 C 84.167969 165.207031 79.816406 161.613281 74.628906 161.613281 C 68.527344 161.613281 63.566406 166.574219 63.566406 172.675781 C 63.566406 178.777344 68.527344 183.742188 74.628906 183.742188 C 79.816406 183.742188 84.167969 180.148438 85.363281 175.324219 L 247.050781 175.324219 L 247.050781 205.507812 C 242.121094 206.621094 238.421875 211.03125 238.421875 216.292969 C 238.421875 222.390625 243.390625 227.359375 249.492188 227.359375 C 255.585938 227.359375 260.550781 222.390625 260.550781 216.292969 C 260.550781 211.183594 257.0625 206.882812 252.351562 205.617188 L 252.351562 172.675781 C 252.351562 171.21875 251.164062 170.03125 249.699219 170.03125 "/><path style=" stroke:none;fill-rule:nonzero;fill:#f3f6f4;fill-opacity:1;" d="M 30.292969 -87.296875 C 27.058594 -87.296875 24.425781 -89.925781 24.425781 -93.167969 C 24.425781 -96.402344 27.058594 -99.03125 30.292969 -99.03125 C 33.527344 -99.03125 36.164062 -96.402344 36.164062 -93.167969 C 36.164062 -89.925781 33.527344 -87.296875 30.292969 -87.296875 Z M 246.746094 34.460938 C 247.851562 33.351562 249.328125 32.746094 250.894531 32.746094 C 252.464844 32.746094 253.933594 33.351562 255.050781 34.460938 C 257.332031 36.75 257.332031 40.476562 255.050781 42.765625 C 253.933594 43.871094 252.464844 44.484375 250.894531 44.484375 C 249.328125 44.484375 247.851562 43.871094 246.746094 42.765625 C 244.453125 40.476562 244.453125 36.75 246.746094 34.460938 Z M 72.902344 -47.257812 L 116.984375 -3.179688 C 117.476562 -2.683594 118.152344 -2.402344 118.855469 -2.402344 L 206.132812 -2.402344 L 241.4375 32.898438 C 238.867188 37.152344 239.40625 42.769531 243.070312 46.4375 C 247.382812 50.75 254.40625 50.75 258.714844 46.4375 C 263.035156 42.125 263.035156 35.105469 258.714844 30.792969 C 255.050781 27.125 249.4375 26.589844 245.179688 29.15625 L 209.105469 -6.921875 C 208.605469 -7.421875 207.933594 -7.699219 207.234375 -7.699219 L 119.949219 -7.699219 L 77.421875 -50.226562 L 77.421875 -140.113281 L 72.128906 -140.113281 L 72.128906 -95.8125 L 41.027344 -95.8125 C 39.832031 -100.632812 35.480469 -104.230469 30.292969 -104.230469 C 24.191406 -104.230469 19.230469 -99.261719 19.230469 -93.167969 C 19.230469 -87.066406 24.191406 -82.101562 30.292969 -82.101562 C 35.480469 -82.101562 39.832031 -85.695312 41.027344 -90.511719 L 72.128906 -90.511719 L 72.128906 -49.128906 C 72.128906 -48.429688 72.402344 -47.753906 72.902344 -47.257812 "/><path style=" stroke:none;fill-rule:nonzero;fill:#f3f6f4;fill-opacity:1;" d="M 78.402344 304.636719 C 78.402344 307.871094 75.769531 310.5 72.535156 310.5 C 69.296875 310.5 66.664062 307.871094 66.664062 304.636719 C 66.664062 301.394531 69.296875 298.765625 72.535156 298.765625 C 75.769531 298.765625 78.402344 301.394531 78.402344 304.636719 Z M 118.277344 254.609375 C 121.515625 254.609375 124.140625 257.246094 124.140625 260.480469 C 124.140625 263.714844 121.515625 266.351562 118.277344 266.351562 C 115.035156 266.351562 112.410156 263.714844 112.410156 260.480469 C 112.410156 257.246094 115.035156 254.609375 118.277344 254.609375 Z M -17.320312 218.972656 L 28.328125 218.972656 L 69.878906 260.53125 L 69.878906 293.902344 C 65.0625 295.09375 61.46875 299.449219 61.46875 304.636719 C 61.46875 310.730469 66.433594 315.699219 72.535156 315.699219 C 78.628906 315.699219 83.597656 310.730469 83.597656 304.636719 C 83.597656 299.449219 80.003906 295.09375 75.179688 293.902344 L 75.179688 263.128906 L 107.546875 263.128906 C 108.734375 267.953125 113.089844 271.542969 118.277344 271.542969 C 124.375 271.542969 129.34375 266.582031 129.34375 260.480469 C 129.34375 254.378906 124.375 249.417969 118.277344 249.417969 C 113.089844 249.417969 108.742188 253.007812 107.546875 257.832031 L 74.675781 257.832031 L 31.300781 214.453125 C 30.800781 213.960938 30.132812 213.679688 29.429688 213.679688 L -17.320312 213.679688 "/><path style=" stroke:none;fill-rule:nonzero;fill:#f3f6f4;fill-opacity:1;" d="M 422.125 569.542969 C 422.125 566.304688 424.761719 563.671875 427.996094 563.671875 C 431.230469 563.671875 433.867188 566.304688 433.867188 569.542969 C 433.867188 572.78125 431.230469 575.410156 427.996094 575.410156 C 424.761719 575.410156 422.125 572.78125 422.125 569.542969 Z M 383.703125 619.472656 C 380.46875 619.472656 377.832031 616.839844 377.832031 613.601562 C 377.832031 610.367188 380.46875 607.734375 383.703125 607.734375 C 386.9375 607.734375 389.574219 610.367188 389.574219 613.601562 C 389.574219 616.839844 386.9375 619.472656 383.703125 619.472656 Z M 394.429688 610.957031 C 393.242188 606.132812 388.890625 602.539062 383.703125 602.539062 C 377.601562 602.539062 372.640625 607.5 372.640625 613.601562 C 372.640625 619.703125 377.601562 624.667969 383.703125 624.667969 C 388.890625 624.667969 393.242188 621.074219 394.429688 616.25 L 427.996094 616.25 C 429.460938 616.25 430.644531 615.066406 430.644531 613.601562 L 430.644531 580.273438 C 435.46875 579.085938 439.058594 574.730469 439.058594 569.542969 C 439.058594 563.441406 434.097656 558.476562 427.996094 558.476562 C 421.902344 558.476562 416.933594 563.441406 416.933594 569.542969 C 416.933594 574.730469 420.523438 579.085938 425.347656 580.273438 L 425.347656 610.957031 L 394.429688 610.957031 "/><path style=" stroke:none;fill-rule:nonzero;fill:#f3f6f4;fill-opacity:1;" d="M 388.285156 569.917969 C 388.285156 573.152344 385.65625 575.785156 382.414062 575.785156 C 379.179688 575.785156 376.550781 573.152344 376.550781 569.917969 C 376.550781 566.683594 379.179688 564.046875 382.414062 564.046875 C 385.65625 564.046875 388.285156 566.683594 388.285156 569.917969 Z M 333.316406 437.457031 C 333.316406 434.222656 335.949219 431.589844 339.1875 431.589844 C 342.421875 431.589844 345.054688 434.222656 345.054688 437.457031 C 345.054688 440.691406 342.421875 443.328125 339.1875 443.328125 C 335.949219 443.328125 333.316406 440.691406 333.316406 437.457031 Z M 384.292969 522.972656 L 341.832031 480.519531 L 341.832031 448.191406 C 346.65625 446.996094 350.25 442.644531 350.25 437.457031 C 350.25 431.355469 345.285156 426.394531 339.1875 426.394531 C 333.085938 426.394531 328.121094 431.355469 328.121094 437.457031 C 328.121094 442.644531 331.714844 446.996094 336.539062 448.191406 L 336.539062 481.613281 C 336.539062 482.3125 336.820312 482.988281 337.316406 483.484375 L 379.765625 525.945312 L 379.765625 559.191406 C 374.949219 560.378906 371.351562 564.734375 371.351562 569.917969 C 371.351562 576.019531 376.320312 580.980469 382.414062 580.980469 C 388.515625 580.980469 393.484375 576.019531 393.484375 569.917969 C 393.484375 564.734375 389.886719 560.378906 385.066406 559.191406 L 385.066406 524.84375 C 385.066406 524.140625 384.785156 523.472656 384.292969 522.972656 "/><path style=" stroke:none;fill-rule:nonzero;fill:#f3f6f4;fill-opacity:1;" d="M 553.308594 436.1875 C 553.308594 432.953125 555.945312 430.316406 559.179688 430.316406 C 562.414062 430.316406 565.050781 432.953125 565.050781 436.1875 C 565.050781 439.421875 562.414062 442.058594 559.179688 442.058594 C 555.945312 442.058594 553.308594 439.421875 553.308594 436.1875 Z M 515.113281 486.207031 C 511.875 486.207031 509.242188 483.578125 509.242188 480.34375 C 509.242188 477.101562 511.875 474.472656 515.113281 474.472656 C 518.347656 474.472656 520.980469 477.101562 520.980469 480.34375 C 520.980469 483.578125 518.347656 486.207031 515.113281 486.207031 Z M 525.84375 477.6875 C 524.648438 472.871094 520.300781 469.273438 515.113281 469.273438 C 509.011719 469.273438 504.046875 474.242188 504.046875 480.34375 C 504.046875 486.4375 509.011719 491.398438 515.113281 491.398438 C 520.300781 491.398438 524.648438 487.808594 525.84375 482.984375 L 559.179688 482.984375 C 560.644531 482.984375 561.824219 481.800781 561.824219 480.335938 L 561.824219 446.914062 C 566.652344 445.722656 570.242188 441.367188 570.242188 436.1875 C 570.242188 430.085938 565.28125 425.125 559.179688 425.125 C 553.078125 425.125 548.113281 430.085938 548.113281 436.1875 C 548.113281 441.367188 551.707031 445.722656 556.53125 446.914062 L 556.53125 477.6875 L 525.84375 477.6875 "/><path style=" stroke:none;fill-rule:nonzero;fill:#f3f6f4;fill-opacity:1;" d="M 375.4375 253.609375 C 375.25 253.792969 375.085938 253.953125 374.972656 254.074219 C 375.074219 253.964844 375.230469 253.808594 375.4375 253.609375 "/><path style=" stroke:none;fill-rule:nonzero;fill:#f3f6f4;fill-opacity:1;" d="M 345.054688 349.152344 C 345.054688 352.390625 342.421875 355.023438 339.1875 355.023438 C 335.949219 355.023438 333.316406 352.390625 333.316406 349.152344 C 333.316406 345.917969 335.949219 343.285156 339.1875 343.285156 C 342.421875 343.285156 345.054688 345.917969 345.054688 349.152344 Z M 379.691406 256.695312 C 380.800781 255.585938 382.277344 254.972656 383.839844 254.972656 C 385.410156 254.972656 386.890625 255.585938 387.996094 256.695312 C 390.28125 258.984375 390.28125 262.707031 387.996094 265 C 386.890625 266.101562 385.410156 266.714844 383.839844 266.714844 C 382.277344 266.714844 380.800781 266.101562 379.691406 265 C 377.410156 262.707031 377.410156 258.984375 379.691406 256.695312 Z M 378.128906 270.304688 C 382.382812 272.871094 388.003906 272.339844 391.667969 268.664062 C 395.980469 264.355469 395.980469 257.332031 391.667969 253.019531 C 387.351562 248.710938 380.335938 248.710938 376.019531 253.019531 C 372.351562 256.6875 371.8125 262.308594 374.386719 266.558594 L 337.316406 303.628906 C 336.820312 304.128906 336.539062 304.804688 336.539062 305.503906 L 336.539062 338.421875 C 331.714844 339.617188 328.121094 343.964844 328.121094 349.152344 C 328.121094 355.253906 333.085938 360.21875 339.1875 360.21875 C 345.285156 360.21875 350.25 355.253906 350.25 349.152344 C 350.25 343.964844 346.65625 339.617188 341.832031 338.421875 L 341.832031 306.601562 L 378.128906 270.304688 "/><path style=" stroke:none;fill-rule:nonzero;fill:#f3f6f4;fill-opacity:1;" d="M 383.839844 78.367188 C 387.082031 78.367188 389.710938 81 389.710938 84.234375 C 389.710938 87.472656 387.082031 90.105469 383.839844 90.105469 C 380.605469 90.105469 377.976562 87.472656 377.976562 84.234375 C 377.976562 81 380.605469 78.367188 383.839844 78.367188 Z M 472.152344 78.367188 C 475.386719 78.367188 478.019531 81 478.019531 84.234375 C 478.019531 87.472656 475.386719 90.105469 472.152344 90.105469 C 468.917969 90.105469 466.28125 87.472656 466.28125 84.234375 C 466.28125 81 468.917969 78.367188 472.152344 78.367188 Z M 383.839844 95.300781 C 389.027344 95.300781 393.382812 91.707031 394.574219 86.882812 L 461.417969 86.882812 C 462.613281 91.707031 466.964844 95.300781 472.152344 95.300781 C 478.253906 95.300781 483.214844 90.335938 483.214844 84.234375 C 483.214844 78.132812 478.253906 73.171875 472.152344 73.171875 C 466.964844 73.171875 462.613281 76.765625 461.417969 81.589844 L 394.574219 81.589844 C 393.382812 76.765625 389.027344 73.171875 383.839844 73.171875 C 377.746094 73.171875 372.785156 78.132812 372.785156 84.234375 C 372.785156 90.335938 377.746094 95.300781 383.839844 95.300781 "/><path style=" stroke:none;fill-rule:nonzero;fill:#f3f6f4;fill-opacity:1;" d="M 389.710938 349.152344 C 389.710938 352.390625 387.082031 355.023438 383.839844 355.023438 C 380.605469 355.023438 377.976562 352.390625 377.976562 349.152344 C 377.976562 345.917969 380.605469 343.285156 383.839844 343.285156 C 387.082031 343.285156 389.710938 345.917969 389.710938 349.152344 Z M 427.996094 299.128906 C 431.230469 299.128906 433.867188 301.761719 433.867188 305 C 433.867188 308.234375 431.230469 310.867188 427.996094 310.867188 C 424.761719 310.867188 422.125 308.234375 422.125 305 C 422.125 301.761719 424.761719 299.128906 427.996094 299.128906 Z M 427.996094 316.0625 C 434.097656 316.0625 439.058594 311.101562 439.058594 305 C 439.058594 298.898438 434.097656 293.933594 427.996094 293.933594 C 422.808594 293.933594 418.460938 297.527344 417.269531 302.351562 L 383.839844 302.351562 C 382.382812 302.351562 381.195312 303.535156 381.195312 305 L 381.195312 338.421875 C 376.375 339.617188 372.785156 343.964844 372.785156 349.152344 C 372.785156 355.253906 377.746094 360.21875 383.839844 360.21875 C 389.941406 360.21875 394.90625 355.253906 394.90625 349.152344 C 394.90625 343.964844 391.3125 339.609375 386.496094 338.421875 L 386.496094 307.644531 L 417.265625 307.644531 C 418.460938 312.46875 422.808594 316.0625 427.996094 316.0625 "/><path style=" stroke:none;fill-rule:nonzero;fill:#f3f6f4;fill-opacity:1;" d="M 383.839844 166.667969 C 387.082031 166.667969 389.710938 169.304688 389.710938 172.539062 C 389.710938 175.773438 387.082031 178.410156 383.839844 178.410156 C 380.605469 178.410156 377.976562 175.773438 377.976562 172.539062 C 377.976562 169.304688 380.605469 166.667969 383.839844 166.667969 Z M 472.152344 166.667969 C 475.386719 166.667969 478.019531 169.304688 478.019531 172.539062 C 478.019531 175.773438 475.386719 178.410156 472.152344 178.410156 C 468.917969 178.410156 466.28125 175.773438 466.28125 172.539062 C 466.28125 169.304688 468.917969 166.667969 472.152344 166.667969 Z M 383.839844 183.605469 C 389.027344 183.605469 393.382812 180.011719 394.574219 175.1875 L 461.417969 175.1875 C 462.613281 180.011719 466.964844 183.605469 472.152344 183.605469 C 478.253906 183.605469 483.214844 178.640625 483.214844 172.539062 C 483.214844 166.4375 478.253906 161.476562 472.152344 161.476562 C 466.964844 161.476562 462.613281 165.066406 461.417969 169.894531 L 394.574219 169.894531 C 393.382812 165.066406 389.027344 161.476562 383.839844 161.476562 C 377.746094 161.476562 372.785156 166.4375 372.785156 172.539062 C 372.785156 178.640625 377.746094 183.605469 383.839844 183.605469 "/><path style=" stroke:none;fill-rule:nonzero;fill:#f3f6f4;fill-opacity:1;" d="M 383.839844 122.519531 C 387.082031 122.519531 389.710938 125.148438 389.710938 128.382812 C 389.710938 131.625 387.082031 134.253906 383.839844 134.253906 C 380.605469 134.253906 377.976562 131.625 377.976562 128.382812 C 377.976562 125.148438 380.605469 122.519531 383.839844 122.519531 Z M 472.152344 122.519531 C 475.386719 122.519531 478.019531 125.148438 478.019531 128.382812 C 478.019531 131.625 475.386719 134.253906 472.152344 134.253906 C 468.917969 134.253906 466.28125 131.625 466.28125 128.382812 C 466.28125 125.148438 468.917969 122.519531 472.152344 122.519531 Z M 383.839844 139.453125 C 389.027344 139.453125 393.382812 135.855469 394.574219 131.039062 L 461.417969 131.039062 C 462.613281 135.855469 466.964844 139.453125 472.152344 139.453125 C 478.253906 139.453125 483.214844 134.484375 483.214844 128.382812 C 483.214844 122.289062 478.253906 117.320312 472.152344 117.320312 C 466.964844 117.320312 462.613281 120.917969 461.417969 125.738281 L 394.574219 125.738281 C 393.382812 120.917969 389.027344 117.320312 383.839844 117.320312 C 377.746094 117.320312 372.785156 122.289062 372.785156 128.382812 C 372.785156 134.484375 377.746094 139.453125 383.839844 139.453125 "/><path style=" stroke:none;fill-rule:nonzero;fill:#f3f6f4;fill-opacity:1;" d="M 300.46875 349.152344 C 300.46875 352.390625 297.839844 355.023438 294.597656 355.023438 C 291.363281 355.023438 288.734375 352.390625 288.734375 349.152344 C 288.734375 345.917969 291.363281 343.285156 294.597656 343.285156 C 297.839844 343.285156 300.46875 345.917969 300.46875 349.152344 Z M 427.996094 210.824219 C 431.230469 210.824219 433.867188 213.460938 433.867188 216.695312 C 433.867188 219.929688 431.230469 222.566406 427.996094 222.566406 C 424.761719 222.566406 422.125 219.929688 422.125 216.695312 C 422.125 213.460938 424.761719 210.824219 427.996094 210.824219 Z M 257.253906 349.046875 C 257.253906 352.28125 254.625 354.917969 251.382812 354.917969 C 248.148438 354.917969 245.519531 352.28125 245.519531 349.046875 C 245.519531 345.804688 248.148438 343.179688 251.382812 343.179688 C 254.625 343.179688 257.253906 345.804688 257.253906 349.046875 Z M 251.382812 302.351562 C 249.925781 302.351562 248.734375 303.535156 248.734375 305 L 248.734375 338.316406 C 243.917969 339.503906 240.320312 343.859375 240.320312 349.046875 C 240.320312 355.144531 245.289062 360.105469 251.382812 360.105469 C 257.484375 360.105469 262.445312 355.144531 262.445312 349.046875 C 262.445312 343.859375 258.855469 339.503906 254.035156 338.316406 L 254.035156 307.644531 L 291.953125 307.644531 L 291.953125 338.421875 C 287.132812 339.617188 283.535156 343.964844 283.535156 349.152344 C 283.535156 355.253906 288.503906 360.21875 294.597656 360.21875 C 300.699219 360.21875 305.664062 355.253906 305.664062 349.152344 C 305.664062 343.964844 302.070312 339.617188 297.253906 338.421875 L 297.253906 307.03125 L 384.941406 219.34375 L 417.265625 219.34375 C 418.460938 224.167969 422.808594 227.757812 427.996094 227.757812 C 434.097656 227.757812 439.058594 222.796875 439.058594 216.695312 C 439.058594 210.59375 434.097656 205.632812 427.996094 205.632812 C 422.808594 205.632812 418.460938 209.222656 417.269531 214.046875 L 383.839844 214.046875 C 383.140625 214.046875 382.472656 214.324219 381.96875 214.824219 L 294.441406 302.351562 L 251.382812 302.351562 "/></g><mask id="3ad2485f1d"><g filter="url(#e4e68fb2bd)"><rect x="0" width="768" y="0" height="576" style="fill:#000000;fill-opacity:0.2;stroke:none;"/></g></mask></g></g></svg>